<?xml version="1.0" standalone="no"?>
<!DOCTYPE svg PUBLIC "-//W3C//DTD SVG 20010904//EN"
 "http://www.w3.org/TR/2001/REC-SVG-20010904/DTD/svg10.dtd">
<svg version="1.0" xmlns="http://www.w3.org/2000/svg"
 width="1024.000000pt" height="1024.000000pt" viewBox="0 0 1024.000000 1024.000000"
 preserveAspectRatio="xMidYMid meet">

<g transform="translate(0.000000,1024.000000) scale(0.100000,-0.100000)"
fill="#000000" stroke="none">
<path d="M5219 9608 c-165 -227 -219 -316 -219 -365 0 -26 -3 -27 -30 -11 -16
10 -27 8 -65 -10 -58 -28 -110 -76 -296 -275 -121 -129 -155 -171 -183 -230
-54 -116 -88 -233 -90 -314 -1 -55 -5 -74 -18 -82 -24 -15 -30 -1 -36 79 -9
126 49 304 141 433 75 105 342 374 426 429 40 26 80 48 87 48 7 0 22 19 33 43
11 23 30 58 43 77 l22 35 -38 -33 c-25 -21 -44 -31 -55 -27 -29 12 -81 15 -81
5 0 -5 -15 -21 -34 -35 -25 -19 -66 -33 -153 -51 -213 -44 -502 -135 -678
-214 -37 -17 -70 -28 -73 -26 -2 3 -1 21 2 40 7 34 9 36 134 84 70 27 158 59
195 72 38 12 66 24 63 27 -8 8 -142 -37 -280 -94 -71 -29 -135 -53 -142 -53
-8 0 -20 11 -26 25 -6 14 -15 25 -20 25 -10 0 -10 -4 2 -32 9 -19 3 -43 -30
-128 -118 -300 -141 -417 -122 -609 30 -294 121 -450 264 -451 67 -1 126 -18
213 -62 120 -60 170 -115 177 -195 3 -24 7 -46 11 -50 4 -3 7 -13 6 -22 0 -10
-5 -6 -11 9 -11 26 -12 24 -23 -24 -3 -15 -8 -27 -10 -24 -2 2 0 20 4 41 7 28
6 37 -4 37 -9 0 -11 8 -8 23 5 19 4 20 -8 7 -8 -8 -21 -21 -29 -29 -13 -11
-12 -12 7 -7 12 4 24 2 28 -4 4 -6 -6 -10 -24 -10 -18 0 -31 5 -31 13 0 8 -4
7 -10 -3 -8 -13 -10 -13 -10 2 0 10 11 19 30 23 31 7 38 19 18 31 -7 5 -8 3
-3 -6 6 -10 4 -12 -11 -6 -10 4 -15 4 -11 0 3 -4 -8 -14 -26 -23 -38 -19 -48
-56 -18 -66 12 -3 21 -11 21 -16 0 -6 -4 -8 -9 -5 -15 10 -33 -22 -26 -45 5
-15 10 -18 15 -9 5 9 9 8 13 -4 3 -8 2 -18 -3 -21 -6 -4 -3 -16 7 -30 18 -23
39 -25 27 -2 -5 9 -3 9 6 0 10 -9 10 -15 2 -26 -7 -8 -11 -16 -9 -18 1 -2 1
-4 0 -4 -6 1 -52 76 -58 94 -3 12 -10 19 -14 16 -5 -2 -17 5 -27 16 -13 15
-14 18 -3 14 10 -4 16 0 16 9 0 11 -8 14 -23 12 -13 -3 -24 -1 -26 2 -2 4 -22
20 -46 36 -30 20 -41 34 -37 45 5 13 4 13 -6 4 -8 -8 -18 -9 -31 -2 -22 12
-24 34 -2 25 9 -3 12 -2 9 5 -4 6 -13 8 -21 5 -7 -3 -16 -1 -19 4 -4 6 -11 10
-18 10 -6 0 -2 -7 9 -16 18 -14 18 -15 -4 -4 -12 6 -20 16 -16 21 3 6 -2 19
-12 30 -17 19 -17 21 -1 49 13 21 14 29 5 33 -10 4 -10 6 0 6 7 1 10 6 6 13
-5 8 -2 9 10 5 10 -4 21 -7 24 -8 4 0 -2 -5 -13 -10 -17 -8 -16 -9 7 -6 20 3
29 -1 33 -14 4 -11 11 -19 17 -19 7 0 6 5 -2 14 -10 13 -7 13 22 3 18 -7 35
-14 38 -17 7 -7 30 -11 30 -5 0 5 -23 16 -150 73 l-45 20 -5 -27 c-3 -14 -2
-29 3 -32 13 -9 -2 -31 -15 -23 -7 5 -9 1 -5 -9 4 -12 2 -14 -10 -10 -11 4
-14 2 -9 -5 4 -7 15 -12 24 -13 14 0 13 -2 -3 -8 -27 -11 -34 -5 -29 24 2 14
0 25 -6 25 -10 0 -14 -15 -11 -34 1 -5 -4 -4 -12 2 -8 7 -17 9 -20 5 -4 -3 -7
-1 -7 6 0 7 6 11 14 8 8 -3 17 1 20 9 3 7 15 13 28 11 14 -1 23 4 23 13 2 22
-35 71 -47 64 -6 -4 -8 -3 -5 3 3 5 -12 31 -34 58 -80 97 -134 218 -174 388
-13 55 -23 76 -32 73 -7 -3 -13 1 -13 8 0 53 25 240 45 336 33 154 40 225 26
234 -6 4 -11 4 -10 -1 3 -18 -1 -34 -8 -30 -5 3 -9 -7 -10 -21 0 -14 -8 -31
-17 -37 -9 -7 -13 -15 -10 -18 3 -3 -6 -4 -20 -3 -14 2 -27 -3 -30 -10 -8 -21
-29 -17 -22 4 5 14 3 13 -9 -3 -9 -11 -18 -19 -20 -17 -3 1 -5 -1 -4 -5 0 -5
7 -7 15 -5 19 4 18 -1 -12 -45 -31 -47 -54 -61 -55 -36 0 10 -2 33 -3 50 -2
20 0 30 6 27 6 -4 5 4 -2 16 -7 12 -8 20 -2 16 14 -8 21 15 14 49 -5 26 -6 27
-13 10 -7 -19 -8 -19 -8 2 -1 12 -6 25 -12 28 -6 4 -8 13 -5 21 3 7 2 16 -3
18 -11 7 -52 -24 -46 -35 11 -16 25 -10 18 9 -3 10 2 6 13 -8 10 -14 19 -30
20 -36 2 -14 -29 -14 -38 -1 -10 16 -37 -11 -31 -32 2 -9 -2 -23 -10 -30 -12
-9 -15 -9 -13 1 0 7 -3 13 -9 13 -5 0 -9 -9 -7 -20 2 -16 0 -17 -8 -5 -9 13
-14 7 -11 -12 0 -4 -5 -5 -12 -2 -7 2 -32 -10 -55 -28 -30 -23 -40 -37 -36
-50 3 -10 0 -18 -6 -18 -6 0 -8 5 -5 10 3 6 1 10 -5 10 -6 0 -8 -12 -5 -30 6
-35 3 -37 -21 -12 -17 16 -18 16 -11 0 3 -10 2 -18 -4 -18 -6 0 -7 -5 -3 -11
4 -8 9 -7 15 2 4 7 11 10 15 6 10 -9 -170 -187 -344 -340 -24 -21 -48 -35 -54
-31 -6 4 -8 3 -5 -3 8 -12 -66 -83 -86 -83 -6 0 -4 5 6 11 9 5 17 14 17 19 0
6 -9 2 -19 -7 -11 -9 -18 -21 -15 -25 4 -5 -63 -80 -148 -166 -84 -86 -227
-245 -318 -352 -91 -107 -214 -250 -275 -318 -60 -68 -113 -130 -118 -137 -4
-9 1 -22 15 -35 19 -17 23 -32 23 -80 l0 -59 28 57 c15 31 25 46 22 32 -8 -34
-33 -250 -32 -275 0 -11 -19 -85 -42 -165 -48 -165 -104 -435 -123 -590 -13
-104 -18 -629 -8 -758 l5 -63 -58 -24 c-108 -43 -162 -96 -208 -201 -27 -60
-29 -160 -4 -234 27 -81 109 -160 195 -187 36 -12 85 -24 110 -27 44 -5 159 7
193 19 11 5 18 -4 27 -32 54 -168 217 -525 293 -639 27 -40 33 -58 29 -87 -2
-20 -7 -37 -11 -37 -9 0 -69 79 -117 155 -48 75 -128 244 -198 417 l-54 133
-97 7 c-114 8 -190 28 -264 69 -29 17 -55 29 -57 27 -5 -6 145 -404 194 -514
88 -197 194 -376 260 -439 19 -18 32 -40 32 -55 1 -25 1 -25 28 8 35 42 56 42
50 1 -5 -30 -4 -31 25 -25 24 5 28 3 23 -10 -5 -14 -4 -15 9 -4 12 10 19 10
27 2 9 -9 7 -12 -8 -13 -10 0 -27 -2 -37 -4 -9 -2 -15 1 -11 6 3 5 0 9 -5 9
-18 0 -13 -42 6 -57 17 -14 17 -14 -1 -9 -15 5 -17 4 -8 -7 7 -8 9 -17 5 -20
-3 -4 1 -7 11 -7 9 0 14 5 11 10 -3 6 -1 10 5 10 20 0 4 -25 -18 -28 -13 -2
-32 7 -47 22 -28 28 -36 58 -10 36 8 -7 15 -19 15 -26 0 -8 7 -14 15 -14 13 0
12 4 -4 22 -11 11 -18 25 -15 29 2 4 0 10 -5 13 -5 4 -12 2 -16 -4 -4 -6 -10
-8 -15 -5 -4 3 -11 -14 -15 -37 -4 -23 -13 -47 -20 -54 -7 -7 -15 -40 -19 -74
-9 -78 11 -122 77 -167 107 -72 224 -68 390 15 110 54 135 50 66 -11 -51 -46
-139 -92 -192 -102 -82 -16 -43 -33 83 -38 l65 -2 -55 -32 c-30 -18 -76 -36
-103 -39 -26 -4 -50 -11 -53 -15 -9 -15 25 -10 131 16 54 13 101 23 102 21 2
-2 -17 -16 -42 -30 -25 -15 -45 -29 -45 -32 0 -8 77 6 125 22 37 13 39 13 20
-2 -11 -9 -42 -27 -70 -40 l-50 -24 35 1 c19 0 54 4 78 8 23 5 42 6 42 2 0 -3
-26 -23 -57 -43 l-58 -37 75 5 75 5 -55 -33 -55 -33 61 -6 c97 -9 110 -29 42
-59 -97 -42 -149 -34 -218 33 -32 31 -33 31 -25 7 4 -14 16 -37 26 -52 24 -33
24 -32 -11 -83 -35 -50 -38 -75 -11 -75 11 0 26 -3 35 -6 10 -4 16 -1 16 9 0
8 9 25 20 38 l19 24 28 -35 c116 -147 200 -199 337 -207 90 -6 127 -1 344 48
90 20 154 29 195 27 l62 -3 -125 -46 c-69 -26 -177 -59 -240 -75 -63 -16 -105
-30 -93 -32 12 -2 32 -13 46 -26 15 -14 44 -26 73 -30 31 -4 117 -39 229 -93
99 -47 254 -117 345 -154 91 -38 156 -69 144 -69 -33 0 -123 32 -374 136 -331
136 -350 143 -350 135 0 -4 -29 -17 -64 -30 -35 -12 -74 -33 -87 -47 -12 -13
-32 -24 -44 -24 -19 0 -85 -56 -85 -73 0 -27 120 -49 197 -37 160 27 217 30
284 16 80 -17 231 -84 222 -99 -3 -5 -1 -7 4 -4 27 17 146 -101 190 -187 33
-66 26 -101 -31 -154 -57 -53 -110 -68 -180 -51 -76 17 -110 37 -96 54 10 12
19 11 57 -6 57 -24 94 -24 142 1 40 20 91 73 91 94 0 21 -55 99 -112 157 -58
60 -152 115 -247 143 -69 20 -161 20 -270 0 -55 -10 -110 -14 -153 -11 -56 5
-68 3 -68 -9 0 -18 44 -64 62 -64 8 -1 5 -6 -6 -15 -11 -8 -15 -15 -8 -15 17
0 36 -41 34 -74 -3 -35 23 -93 52 -118 12 -9 95 -69 186 -132 105 -73 181
-134 210 -168 38 -45 49 -52 74 -50 58 7 106 -47 92 -103 -6 -23 -5 -25 13
-16 13 8 28 8 46 1 42 -16 45 -13 45 39 0 38 6 57 23 77 l24 27 140 -2 c83 -1
159 -8 185 -16 95 -28 225 -122 202 -144 -5 -6 -30 3 -64 25 -89 57 -141 77
-208 82 -51 4 -67 1 -83 -14 -46 -41 -66 -118 -45 -167 22 -52 79 -103 129
-116 32 -8 48 -17 53 -33 6 -19 7 -19 16 -5 5 10 20 17 33 17 30 0 39 14 24
38 -9 15 -8 27 7 61 l19 43 18 -23 c10 -13 28 -28 40 -34 15 -8 21 -19 20 -36
-3 -22 -1 -22 10 -7 13 16 15 16 30 0 12 -12 20 -13 28 -5 8 8 19 8 40 0 21
-8 37 -8 59 0 16 6 30 8 32 4 4 -8 108 -93 108 -88 0 2 -24 35 -52 74 -29 38
-69 98 -88 132 -19 34 -57 97 -84 139 -86 134 -110 240 -122 525 l-7 177 38 0
37 0 -6 -43 c-10 -67 12 -345 34 -433 23 -89 127 -302 205 -419 145 -217 335
-363 592 -455 91 -32 94 -34 197 -140 l106 -108 40 51 c68 85 178 173 245 197
247 87 387 180 524 352 118 147 249 386 281 513 21 84 43 318 38 414 l-3 66
33 3 32 3 0 -109 c0 -132 -15 -291 -35 -387 -21 -93 -56 -162 -202 -395 -35
-54 -63 -106 -63 -114 0 -19 31 -21 78 -4 35 13 43 9 71 -40 4 -7 20 -14 36
-15 28 -2 29 0 27 34 -3 28 2 40 16 51 11 7 22 25 24 38 2 15 11 26 23 29 11
2 26 12 33 22 20 29 39 23 52 -16 8 -25 8 -40 0 -55 -9 -17 -7 -22 15 -30 32
-12 41 -7 65 32 17 29 17 31 -1 49 -24 24 -24 44 1 69 25 25 45 25 70 0 16
-16 19 -28 14 -55 -6 -33 -5 -35 23 -35 59 0 93 111 57 186 -22 46 -50 64
-101 64 -58 0 -121 -23 -207 -76 -81 -49 -86 -50 -86 -30 0 22 67 73 149 114
74 36 77 37 225 43 83 3 157 4 163 2 26 -10 54 -71 51 -110 l-3 -38 51 0 52
-1 -5 37 c-5 31 -1 42 20 63 29 29 83 35 106 14 11 -11 14 -10 18 0 3 7 15 25
27 40 13 15 21 32 19 39 -5 12 102 96 244 191 117 78 138 105 48 62 -59 -29
-68 -26 -61 15 4 21 2 50 -5 69 -10 27 -10 40 0 64 11 27 10 34 -9 60 -28 37
-21 77 16 94 36 17 183 -4 201 -28 10 -14 17 -15 38 -6 23 11 44 56 32 69 -3
3 -20 0 -38 -6 -43 -15 -130 -13 -209 4 -197 43 -355 -9 -510 -169 -103 -106
-110 -129 -52 -186 73 -73 159 -75 264 -4 42 28 47 30 37 11 -9 -17 -9 -20 1
-10 7 6 14 35 17 65 3 29 10 57 17 61 7 6 4 7 -6 3 -10 -3 -19 -1 -19 4 -1 6
-2 15 -3 22 -1 16 -64 22 -82 7 -21 -17 -17 -37 12 -66 41 -41 15 -71 -33 -38
-53 37 -32 134 33 155 67 22 124 -37 124 -130 0 -46 -4 -56 -35 -87 -22 -22
-35 -45 -35 -61 0 -64 -92 -132 -180 -132 -80 0 -119 29 -120 88 0 43 14 41
37 -5 16 -34 22 -38 62 -41 25 -2 55 -1 68 2 30 8 93 64 93 83 0 16 -4 16 -80
-12 -37 -14 -53 -15 -93 -6 -49 11 -82 33 -69 45 3 4 -2 4 -12 0 -14 -5 -17
-3 -14 12 1 10 -6 28 -17 40 -54 59 -54 65 -3 146 54 86 192 194 233 182 15
-4 17 -3 5 5 -19 13 58 47 151 67 68 14 108 12 269 -16 69 -12 134 -7 188 15
54 23 39 36 -31 29 -77 -8 -113 6 -97 36 17 32 11 47 -24 70 -30 18 -49 45
-51 72 -1 19 -19 15 -91 -18 -281 -128 -687 -284 -701 -270 -6 5 33 23 158 71
48 18 188 82 312 142 l226 108 -44 13 c-51 14 -63 28 -43 48 10 11 40 15 98
16 l83 1 -49 13 c-147 39 -261 57 -399 63 -131 6 -145 8 -115 18 31 10 32 11
10 13 -52 5 66 20 156 20 92 0 173 -10 404 -50 149 -26 247 -23 335 10 49 19
76 39 149 113 l88 89 21 -21 c17 -16 19 -23 9 -33 -21 -21 -13 -25 28 -15 31
9 40 16 40 32 0 21 -39 82 -62 97 -10 6 -10 10 -2 16 15 10 64 82 64 95 0 5
-18 -7 -39 -26 -56 -50 -107 -62 -177 -42 -30 8 -54 20 -54 24 0 5 12 20 28
33 18 16 26 30 24 47 -3 18 0 22 11 18 9 -3 33 -9 54 -12 l38 -6 -52 31 c-54
33 -71 58 -30 46 12 -4 38 -9 57 -12 34 -5 33 -4 -23 31 -32 21 -56 39 -53 42
3 3 26 -2 53 -10 49 -15 103 -27 103 -21 0 1 -34 21 -76 44 -75 42 -93 61 -38
40 34 -13 164 -50 164 -46 0 1 -43 24 -95 51 -52 27 -93 50 -91 52 1 1 65 -17
141 -42 141 -46 175 -53 175 -35 0 6 -13 10 -30 10 -46 0 -116 28 -191 76 -38
24 -69 45 -69 47 0 2 23 -2 52 -9 29 -8 77 -14 108 -13 l55 0 -61 23 c-34 12
-81 34 -105 48 -52 31 -139 107 -122 108 6 0 64 -22 127 -50 140 -60 220 -76
300 -61 72 13 118 35 156 74 38 39 44 63 36 133 -6 57 -2 66 20 37 10 -15 11
-11 4 27 -4 25 -11 84 -14 131 l-7 86 41 49 c101 121 256 440 379 781 22 60
42 116 46 125 5 13 -7 9 -49 -16 -65 -39 -150 -62 -277 -76 -50 -5 -93 -10
-94 -12 -2 -2 -28 -66 -60 -143 -90 -221 -187 -407 -234 -449 -21 -19 -22 -19
-36 0 -8 10 -13 21 -12 24 1 3 28 53 59 111 58 105 145 304 208 472 26 70 36
87 49 82 112 -44 320 -12 413 65 49 41 96 138 104 216 16 152 -95 313 -246
358 -34 10 -44 18 -43 32 12 89 14 563 4 689 -21 255 -88 596 -155 794 -14 40
-23 77 -21 81 3 5 -6 55 -19 112 -14 56 -28 133 -32 171 -3 38 -14 77 -23 90
-26 34 -41 75 -41 110 0 21 -3 28 -9 19 -5 -9 -14 16 -23 70 -38 204 -215 555
-513 1018 -73 113 -154 243 -180 290 -48 86 -100 166 -120 185 -15 15 -38 12
-42 -5 -4 -13 -3 -13 5 -1 8 11 10 7 9 -13 -2 -26 -2 -27 -18 -7 -16 19 -29
18 -29 -1 0 -5 5 -6 11 -2 8 4 9 -1 4 -16 -5 -14 -3 -20 3 -16 6 3 8 -2 5 -12
-2 -10 0 -43 5 -73 8 -44 8 -50 -2 -36 -7 9 -17 13 -21 9 -4 -4 -3 3 4 15 14
27 14 45 0 21 -5 -10 -15 -18 -21 -18 -6 0 -8 3 -5 6 3 4 -12 20 -33 35 -22
16 -40 32 -40 35 0 4 7 1 15 -6 19 -15 19 -1 1 23 -10 13 -15 14 -18 6 -7 -21
-48 75 -48 111 0 32 -1 33 -14 15 -7 -11 -19 -37 -27 -58 -8 -23 -18 -36 -26
-33 -7 3 -13 1 -13 -4 0 -6 5 -10 12 -10 9 0 9 -3 1 -11 -6 -6 -9 -18 -6 -26
9 -24 -37 18 -47 42 -7 18 -9 17 -20 -12 -7 -18 -16 -33 -22 -33 -5 0 -7 -4
-4 -8 8 -14 -34 -53 -47 -45 -9 5 -9 3 0 -8 10 -13 8 -20 -15 -42 -16 -15 -32
-24 -37 -20 -4 5 -5 3 -2 -3 4 -6 -20 -35 -54 -64 -47 -41 -62 -50 -74 -40
-11 9 -13 7 -10 -7 1 -12 -22 -41 -68 -83 -67 -62 -108 -82 -122 -60 -3 5 -11
10 -16 10 -6 0 -7 -4 -4 -10 4 -6 -1 -7 -11 -3 -15 5 -15 7 0 15 9 5 21 6 27
3 17 -11 41 15 28 31 -8 10 -20 6 -57 -20 -45 -32 -105 -66 -117 -66 -19 0 7
29 93 104 174 153 333 310 337 335 5 27 2 23 155 191 82 89 100 112 62 80 -30
-25 -81 -73 -115 -107 -35 -37 -69 -63 -81 -63 -11 0 -37 17 -58 37 -41 40
-47 34 -23 -24 19 -45 19 -54 -1 -46 -8 3 -13 12 -10 19 8 22 -4 42 -22 39 -9
-1 -16 -10 -16 -19 1 -8 -3 -13 -8 -10 -5 3 -19 -2 -30 -13 -17 -15 -16 -11 5
22 34 50 34 61 1 30 -32 -30 -41 -31 -67 -7 -16 14 -15 9 7 -35 19 -38 22 -51
11 -47 -8 4 -15 12 -15 18 0 18 -46 77 -53 69 -4 -3 -7 -21 -7 -40 0 -18 -4
-33 -10 -33 -5 0 -10 -10 -10 -22 0 -24 -42 -188 -62 -244 -6 -17 -21 -37 -33
-45 -13 -8 -51 -68 -85 -134 -62 -118 -170 -375 -170 -405 -1 -8 -7 -3 -16 13
-8 15 -18 66 -21 112 -5 78 -4 87 18 120 13 19 28 35 32 35 5 0 5 -4 2 -10 -3
-5 -4 -10 -1 -10 2 0 30 34 60 76 85 116 129 279 143 525 6 117 -1 146 -27
114 -7 -8 -18 -15 -25 -15 -8 0 -16 -14 -20 -31 -4 -17 -12 -32 -19 -35 -6 -2
-45 9 -86 26 -229 95 -573 200 -755 231 -71 12 -144 51 -145 77 0 21 -38 13
-64 -15 -25 -27 -25 -27 -47 -7 l-21 19 16 -39 c20 -49 34 -66 53 -66 47 0
251 -180 425 -375 172 -192 257 -437 196 -565 l-21 -45 -8 76 c-15 145 -77
321 -145 409 -55 70 -323 349 -378 392 -42 33 -56 39 -90 36 -39 -2 -40 -2
-60 47 -28 71 -257 405 -278 405 -3 0 -30 -33 -59 -72z m131 -90 c126 -196
149 -236 155 -274 16 -95 30 -146 41 -151 6 -2 29 7 49 22 76 51 77 51 198
-76 186 -196 280 -299 275 -304 -11 -12 -91 54 -232 193 -86 83 -162 152 -169
152 -7 0 -22 -7 -33 -15 -24 -18 -48 -19 -83 -1 -29 15 -63 86 -77 161 -4 21
-38 85 -77 144 -39 58 -80 123 -92 144 l-22 37 -80 -123 c-98 -150 -105 -164
-132 -252 -38 -121 -83 -153 -149 -106 l-30 21 -160 -157 c-148 -147 -222
-208 -222 -185 0 17 64 89 221 250 81 83 154 152 161 152 8 0 37 -15 66 -34
62 -42 60 -43 92 92 17 72 33 109 74 174 134 211 151 238 156 237 3 0 34 -45
70 -101z m1757 -475 c-4 -3 -1 -13 6 -21 8 -11 8 -14 0 -9 -6 4 -14 3 -18 -3
-3 -5 -12 -10 -18 -10 -7 0 -6 4 3 10 8 5 16 14 16 20 2 17 4 20 11 20 3 0 3
-3 0 -7z m-962 -13 c8 7 15 9 15 5 0 -4 -8 -14 -17 -22 -16 -12 -16 -13 -1
-11 9 2 16 -1 15 -5 -1 -5 14 -17 33 -28 42 -22 36 -24 -13 -4 -19 8 -46 29
-58 47 -15 22 -17 28 -6 19 14 -11 20 -11 32 -1z m-1730 -50 c-3 -5 -12 -10
-18 -10 -7 0 -6 4 3 10 19 12 23 12 15 0z m1842 -35 c0 -17 -13 -20 -21 -6 -4
5 0 12 6 14 7 3 13 6 14 6 0 1 1 -6 1 -14z m-2797 -5 c0 -5 -4 -10 -10 -10 -5
0 -10 5 -10 10 0 6 5 10 10 10 6 0 10 -4 10 -10z m810 -4 c0 -8 -4 -17 -8 -20
-4 -2 -8 4 -8 15 0 10 4 19 8 19 4 0 8 -6 8 -14z m-99 -21 c5 3 6 -2 2 -11 -7
-19 5 -14 42 15 18 15 19 15 7 0 -6 -9 -8 -20 -4 -24 4 -5 2 -5 -5 -2 -6 4
-18 0 -27 -9 -15 -14 -17 -13 -26 11 -5 14 -9 32 -9 38 1 7 3 4 6 -6 2 -9 9
-15 14 -12z m-36 -42 c-2 -8 0 -11 5 -8 6 3 10 3 10 -2 -1 -10 -71 -43 -94
-43 -9 0 -14 -4 -11 -10 3 -5 1 -10 -6 -10 -6 0 -9 8 -6 20 3 11 1 18 -4 14
-5 -3 -9 7 -9 23 0 22 2 25 10 13 9 -13 10 -13 10 1 0 8 16 23 36 32 19 10 33
13 30 8 -3 -5 0 -11 8 -14 10 -4 13 1 10 16 -4 19 -3 19 6 -2 6 -14 8 -31 5
-38z m2330 45 c14 -6 25 -15 25 -19 0 -5 7 -5 17 -2 12 5 14 3 8 -7 -6 -10 -4
-12 8 -7 24 9 30 -9 17 -49 -9 -27 -15 -33 -21 -23 -5 8 -9 10 -9 6 0 -5 -23
4 -51 19 -41 23 -49 32 -45 48 3 12 6 27 6 34 0 15 12 15 45 0z m-2455 -114
c0 -33 -26 -44 -61 -27 -16 8 -29 15 -29 16 0 1 14 2 31 3 20 1 26 -2 17 -7
-9 -6 -6 -8 10 -6 13 1 18 5 13 10 -5 5 -8 15 -7 21 2 6 1 8 -1 4 -3 -5 -9 -8
-14 -8 -6 0 -7 5 -3 11 4 8 -1 9 -17 4 -20 -5 -19 -4 6 13 27 18 31 18 43 4 6
-9 12 -26 12 -38z m2574 44 c-4 -6 -3 -8 4 -4 6 3 27 -1 47 -11 33 -16 36 -21
31 -46 -3 -16 -6 -35 -6 -42 0 -7 -19 -2 -53 14 l-52 26 9 38 c6 20 14 37 19
37 4 0 5 -5 1 -12z m-3351 -19 c-18 -18 5 -61 29 -53 10 3 18 1 18 -5 0 -6 -6
-11 -13 -11 -13 0 -77 -28 -77 -34 0 -10 47 2 57 14 7 8 13 10 13 4 0 -15 -68
-84 -83 -84 -12 1 21 30 33 30 4 0 7 7 7 15 0 8 -4 12 -8 10 -14 -9 -38 7 -32
21 3 8 8 12 13 9 4 -2 16 2 26 11 18 15 18 15 -3 9 -12 -3 -24 -1 -28 5 -3 5
1 10 9 10 10 0 16 9 16 23 0 26 7 37 24 37 6 0 6 -4 -1 -11z m42 -29 c-3 -5
-14 -10 -23 -9 -14 0 -13 2 3 9 27 11 27 11 20 0z m665 -36 c0 4 5 4 10 1 6
-4 7 -11 4 -17 -4 -6 -10 -6 -16 0 -6 6 -18 8 -27 5 -9 -4 -13 -3 -9 2 4 4 2
15 -5 23 -9 11 -4 11 16 -2 15 -10 27 -15 27 -12z m-467 -58 c3 -30 1 -43 -4
-35 -5 8 -8 34 -8 59 1 53 6 44 12 -24z m397 50 c0 -2 -7 -7 -16 -10 -8 -3
-12 -2 -9 4 6 10 25 14 25 6z m-1 -23 c-3 -21 2 -26 12 -13 9 13 10 13 6 0 -2
-8 -12 -14 -21 -12 -9 2 -16 -1 -15 -5 3 -17 -1 -24 -11 -18 -6 4 -4 16 6 31
16 24 25 31 23 17z m-513 -68 c-1 -30 -2 -31 -17 -4 -8 15 -8 19 0 15 6 -4 11
-2 11 3 0 6 2 11 4 11 2 0 3 -11 2 -25z m2138 -33 c25 -49 75 -119 138 -192
l37 -43 -9 34 c-17 57 -11 57 21 0 32 -55 120 -151 139 -151 5 0 10 17 10 37
l0 37 31 -50 c35 -56 99 -125 109 -119 4 3 10 -8 13 -24 3 -16 9 -40 12 -53 4
-16 1 -31 -9 -41 -14 -14 -8 -20 64 -66 75 -48 80 -49 74 -26 -3 14 -4 25 -1
25 2 0 47 -20 98 -44 52 -24 119 -50 151 -57 l56 -13 17 -56 17 -57 -27 -44
c-27 -42 -28 -43 -38 -21 -6 13 -16 21 -23 18 -12 -4 -69 59 -69 77 0 4 -3 6
-6 5 -12 -6 -39 25 -32 36 11 16 10 30 -2 38 -19 14 -26 8 -10 -9 16 -16 16
-17 -1 -30 -17 -12 -16 -15 16 -48 19 -19 29 -35 22 -35 -7 0 -12 5 -12 11 0
5 -5 7 -11 3 -21 -12 -58 18 -65 52 -3 18 -12 38 -19 44 -19 15 -36 -18 -30
-59 2 -22 -1 -31 -11 -31 -8 0 -14 -5 -14 -11 0 -5 5 -7 12 -3 7 4 8 3 4 -4
-4 -7 -1 -12 8 -12 23 0 33 -27 41 -110 l6 -75 -19 30 c-10 17 -40 53 -66 81
-44 50 -56 74 -37 74 14 0 32 -21 65 -73 17 -26 33 -47 37 -47 10 0 -7 68 -21
85 -10 12 -10 15 1 16 11 0 11 2 -1 7 -31 14 -100 65 -95 70 3 3 10 1 16 -5 6
-6 19 -9 28 -6 14 4 14 3 1 -6 -13 -9 -13 -11 2 -11 24 0 33 19 11 26 -38 11
-68 30 -68 44 0 7 -6 15 -13 18 -7 2 -10 -2 -6 -12 3 -9 1 -16 -6 -16 -6 0 -8
-5 -3 -12 4 -8 -2 -7 -17 3 -14 8 -46 23 -72 33 -61 22 -75 41 -24 32 48 -9
46 1 -6 24 -24 11 -36 20 -28 20 9 0 11 3 5 8 -5 4 -12 14 -13 22 -2 8 0 12 3
8 4 -4 17 -3 28 3 15 8 18 8 12 -1 -5 -8 -2 -10 11 -6 11 3 26 1 34 -5 12 -8
12 -9 -4 -7 -10 2 -21 -4 -23 -12 -3 -9 -1 -11 4 -4 4 6 25 10 45 9 43 -2 38
14 -10 34 -15 7 -43 35 -62 63 -53 78 -153 146 -279 189 -30 11 -75 31 -100
45 -36 20 -41 21 -21 5 14 -12 57 -37 95 -56 39 -19 65 -34 59 -35 -29 -1
-100 34 -181 88 -88 59 -147 93 -128 75 6 -6 44 -33 86 -61 42 -28 96 -74 120
-104 24 -29 33 -44 21 -34 -12 11 -22 15 -22 10 0 -5 -5 -1 -11 9 -5 9 -15 17
-22 17 -7 0 -6 -4 3 -10 14 -9 -53 -14 -150 -11 -54 2 -263 53 -249 61 10 7
-89 60 -111 60 -4 0 -14 8 -23 18 -11 12 11 4 59 -20 42 -21 83 -38 91 -38 8
0 12 -4 9 -9 -4 -5 2 -7 12 -5 9 3 38 1 62 -5 28 -6 49 -6 54 -1 6 6 -2 12
-22 16 -18 4 -32 10 -32 15 0 9 59 4 142 -12 47 -10 56 -14 47 -25 -7 -9 -8
-14 -1 -14 15 0 23 30 9 35 -6 2 -30 9 -52 16 -93 28 -161 101 -191 205 -9 33
-19 66 -22 74 -3 8 16 -3 44 -26 27 -22 71 -55 97 -73 56 -38 177 -95 185 -87
6 7 -15 278 -24 301 -13 34 7 12 30 -33z m-2351 -7 c-3 -9 -8 -14 -10 -11 -3
3 -2 9 2 15 9 16 15 13 8 -4z m3786 -26 c-16 -10 -23 -4 -14 10 3 6 11 8 17 5
6 -4 5 -9 -3 -15z m-3533 -71 l3 -33 -13 30 c-7 17 -12 33 -10 36 2 4 -3 12
-11 19 -8 7 -15 17 -15 23 0 26 43 -45 46 -75z m91 50 c-3 -8 -6 -5 -6 6 -1
11 2 17 5 13 3 -3 4 -12 1 -19z m1953 -174 c0 -9 -76 28 -98 49 -28 25 -41 48
-53 89 -7 24 5 16 72 -52 43 -45 79 -83 79 -86z m-376 -9 c138 -28 162 -37
216 -84 l35 -30 -71 20 c-39 10 -122 30 -185 43 -133 28 -247 81 -324 151
l-50 45 125 -60 c104 -50 147 -64 254 -85z m1842 118 c-4 -4 -12 -1 -19 7 -9
10 -9 11 1 6 7 -4 12 -2 13 6 0 11 2 11 6 0 3 -7 2 -16 -1 -19z m-3475 -26
c-10 -9 -11 -8 -5 6 3 10 9 15 12 12 3 -3 0 -11 -7 -18z m66 -9 c-3 -8 -6 -5
-6 6 -1 11 2 17 5 13 3 -3 4 -12 1 -19z m1613 -14 c28 -8 54 -20 60 -27 43
-53 62 -80 49 -70 -8 7 -64 33 -124 58 -61 25 -114 51 -120 57 -13 13 64 3
135 -18z m-366 -110 l39 -7 -7 29 -8 29 32 -30 c25 -24 28 -31 15 -33 -11 -3
-13 -7 -6 -16 7 -8 6 -17 -1 -26 -8 -13 -9 -12 -4 2 3 12 1 15 -9 11 -8 -3
-13 -9 -10 -13 3 -5 -4 -6 -14 -3 -11 3 -27 -3 -39 -15 -11 -11 -40 -27 -65
-37 -26 -10 -45 -21 -43 -24 3 -4 -6 -8 -20 -9 -37 -3 -29 7 29 34 57 27 60
27 -57 9 -19 -3 -51 -17 -72 -32 -22 -14 -75 -41 -120 -59 -45 -18 -98 -43
-118 -55 -34 -20 -42 -21 -88 -11 -68 16 -137 15 -188 -3 -24 -8 -45 -14 -47
-12 -9 9 118 93 165 109 30 11 77 32 105 48 53 30 147 50 227 50 l45 -1 -33
-17 c-18 -10 -30 -21 -26 -25 12 -12 49 -8 120 14 l68 21 -25 20 c-13 10 -37
25 -54 33 -28 13 -27 13 30 9 33 -3 73 -10 89 -15 16 -5 31 -8 32 -6 2 2 -8
20 -21 40 l-25 37 32 -19 c18 -11 51 -23 72 -27z m2899 -176 c153 -161 415
-520 554 -763 75 -130 271 -539 301 -630 40 -118 62 -191 62 -205 0 -18 -29
-23 -45 -6 -9 8 -28 57 -44 108 -24 80 -112 273 -131 288 -4 3 -35 68 -69 145
-79 180 -84 187 -77 105 4 -47 17 -88 46 -149 22 -46 39 -86 36 -88 -13 -13
-116 147 -116 182 0 8 -4 15 -9 15 -16 0 -35 118 -23 145 9 20 7 32 -15 70
-15 28 -23 54 -20 67 10 35 -244 400 -469 675 -53 65 -101 124 -107 131 -7 9
-4 12 9 12 11 0 60 -43 117 -102z m549 -144 c23 -46 39 -87 36 -90 -8 -8 -113
122 -162 201 -72 115 -67 131 13 47 50 -52 83 -99 113 -158z m-3472 190 c0 -8
-19 -13 -24 -6 -3 5 1 9 9 9 8 0 15 -2 15 -3z m-19 -67 c-10 -9 -11 -8 -5 6 3
10 9 15 12 12 3 -3 0 -11 -7 -18z m1014 9 c44 -14 115 -68 115 -88 0 -12 -68
1 -105 19 -33 17 -85 62 -85 75 0 12 20 10 75 -6z m-275 -16 c0 -5 -2 -10 -4
-10 -3 0 -8 5 -11 10 -3 6 -1 10 4 10 6 0 11 -4 11 -10z m-720 -45 c0 -22 -17
-26 -31 -7 -13 16 -13 16 5 2 18 -14 19 -13 14 8 -4 12 -2 20 3 16 5 -3 9 -11
9 -19z m906 7 c0 -10 -6 -19 -13 -19 -17 0 -17 24 0 30 6 3 12 6 12 6 1 1 1
-7 1 -17z m-952 -20 c3 -5 -1 -9 -9 -9 -8 0 -12 4 -9 9 3 4 7 8 9 8 2 0 6 -4
9 -8z m835 -23 c-19 -14 -21 -20 -12 -29 7 -5 11 -7 8 -3 -5 6 27 23 73 37 17
6 22 3 22 -11 0 -14 2 -15 9 -4 6 9 11 10 15 2 4 -6 23 -11 42 -11 44 0 124
-20 124 -31 0 -4 -9 -7 -20 -6 -11 1 -20 4 -20 7 0 3 -9 6 -20 6 -13 0 -19 -5
-15 -14 4 -10 0 -12 -12 -7 -10 4 -45 10 -78 13 -33 2 -64 10 -68 16 -6 7 -7
5 -4 -6 4 -11 -2 -18 -21 -24 -15 -4 -30 -7 -34 -6 -5 1 -8 -4 -8 -10 0 -9 -4
-8 -10 2 -8 13 -10 12 -10 -4 0 -11 -10 -30 -22 -44 -22 -23 -22 -24 -4 -37
10 -8 15 -18 12 -23 -3 -6 -3 -12 1 -15 5 -2 1 -2 -7 0 -12 3 -13 2 -2 -8 9
-10 15 -10 24 -1 7 7 8 12 3 12 -5 0 2 11 16 26 21 22 21 24 4 18 -20 -7 -20
-7 -1 14 11 12 21 20 24 17 3 -3 15 3 26 12 20 17 20 17 0 -7 -12 -14 -25 -40
-29 -58 -4 -18 -14 -36 -22 -39 -8 -3 -11 -9 -6 -12 4 -3 13 -20 19 -38 9 -24
9 -33 0 -37 -6 -2 -3 -5 6 -5 9 -1 20 -6 24 -13 4 -6 3 -9 -2 -5 -5 3 -9 -8
-9 -23 -1 -16 3 -26 7 -24 5 3 6 9 3 14 -10 17 13 19 26 3 12 -14 12 -16 0 -8
-10 5 -12 4 -7 -4 4 -6 11 -9 15 -6 12 7 44 -32 37 -43 -3 -5 2 -9 12 -8 9 0
16 -5 14 -12 -1 -8 1 -11 6 -8 7 4 96 -88 116 -121 4 -7 4 -29 0 -49 -6 -35
-8 -36 -21 -18 -11 15 -16 16 -22 6 -6 -10 -16 -1 -34 31 -15 25 -42 61 -62
81 -19 20 -35 41 -35 47 0 19 -52 79 -69 78 -10 0 -11 -2 -4 -6 10 -3 9 -12
-3 -35 l-16 -30 -16 34 c-15 29 -26 35 -82 50 -36 9 -88 17 -117 17 -28 1 -55
6 -58 11 -3 6 2 10 13 10 27 0 113 30 139 49 12 9 23 22 23 29 0 7 11 18 25
24 26 12 34 28 13 28 -9 0 -8 3 2 10 35 22 -3 17 -81 -10 -95 -33 -200 -46
-269 -33 -44 9 -43 9 50 20 52 6 125 21 162 33 98 33 142 90 68 90 -15 0 -30
6 -33 13 -3 9 -38 12 -128 13 -68 0 -137 6 -154 12 -16 5 -23 11 -15 12 23 3
-31 18 -68 19 -18 1 -31 5 -28 10 3 5 108 12 233 16 125 4 248 13 273 19 25 6
56 10 69 7 l24 -4 -24 -18z m161 16 c11 -13 10 -14 -4 -9 -9 3 -16 10 -16 15
0 13 6 11 20 -6z m-1048 -27 c-14 -14 -16 -32 -3 -23 5 3 12 1 15 -4 6 -10
-19 -9 -29 1 -4 3 -1 15 6 27 7 11 15 18 18 15 3 -2 -1 -10 -7 -16z m1263 -57
l20 -11 -20 2 c-11 2 -26 10 -32 18 -12 13 -15 13 -27 -3 -12 -16 -14 -16 -20
-2 -3 9 -2 14 3 11 5 -3 14 1 21 9 11 13 14 13 24 1 6 -7 20 -19 31 -25z
m-135 -2 c0 -6 7 -9 15 -5 8 3 15 1 15 -4 0 -6 9 -10 20 -10 11 0 20 -5 20
-11 0 -7 -7 -8 -17 -4 -10 4 -30 12 -45 17 -27 10 -39 28 -18 28 6 0 10 -5 10
-11z m-2253 -21 c-3 -8 -6 -5 -6 6 -1 11 2 17 5 13 3 -3 4 -12 1 -19z m2360
-17 c0 -11 -7 -17 -14 -14 -9 4 -9 8 0 19 16 17 16 17 14 -5z m-538 5 c-10 -9
-79 -14 -74 -5 4 5 22 9 42 9 20 0 34 -2 32 -4z m-106 -31 c-10 -7 -29 -16
-43 -20 -21 -6 -19 -3 10 18 19 14 39 23 43 20 5 -3 0 -11 -10 -18z m490 14
c27 0 29 -2 11 -9 -24 -10 -74 -2 -74 12 0 6 7 7 16 4 9 -3 30 -6 47 -7z m-88
-15 c-11 -8 -19 -19 -18 -24 1 -4 -4 -11 -13 -14 -12 -4 -12 -2 -4 14 6 10 18
24 28 29 26 15 30 12 7 -5z m20 -32 c-8 -2 -15 -8 -15 -13 0 -6 6 -7 13 -3 8
5 8 2 -2 -9 -7 -9 -19 -17 -25 -16 -7 0 -6 2 2 6 6 2 10 9 7 13 -3 5 0 18 7
29 9 15 14 17 20 8 4 -7 1 -13 -7 -15z m45 24 c0 -11 -19 -15 -25 -6 -3 5 1
10 9 10 9 0 16 -2 16 -4z m21 -76 c-10 -22 -21 -43 -25 -47 -8 -9 9 38 24 68
19 34 19 20 1 -21z m2479 20 c6 -11 8 -20 6 -20 -3 0 -10 9 -16 20 -6 11 -8
20 -6 20 3 0 10 -9 16 -20z m-2590 -9 c7 -14 6 -29 -5 -53 -13 -32 -12 -37 6
-67 11 -18 15 -30 10 -27 -5 3 -18 22 -30 42 -12 19 -17 32 -11 29 5 -3 10 -2
10 3 0 6 -7 13 -16 16 -16 6 -12 38 10 62 14 17 14 17 26 -5z m150 -15 c0 -3
-4 -8 -10 -11 -5 -3 -10 -1 -10 4 0 6 5 11 10 11 6 0 10 -2 10 -4z m34 -11
c-4 -8 -11 -15 -16 -15 -6 0 -5 6 2 15 7 8 14 15 16 15 2 0 1 -7 -2 -15z m96
6 c0 -5 -3 -17 -6 -26 -5 -12 -9 -14 -14 -4 -5 7 -6 18 -3 26 6 15 23 18 23 4z
m1565 -136 c68 -99 122 -163 230 -270 77 -77 182 -187 233 -245 51 -58 124
-136 163 -175 l71 -70 -23 45 c-13 25 -43 79 -68 120 -24 41 -57 106 -73 145
-16 38 -58 108 -94 154 -35 47 -62 91 -59 98 2 8 0 11 -5 8 -11 -7 -40 57 -40
87 0 13 42 -20 143 -113 91 -84 141 -137 139 -148 -13 -61 -12 -86 3 -133 36
-109 83 -183 183 -284 93 -94 96 -99 70 -102 -16 -2 -28 -7 -28 -12 0 -13 51
-42 65 -36 33 12 47 -166 15 -198 -21 -21 -42 23 -36 76 5 47 4 49 -57 117
-34 38 -72 73 -84 77 -13 3 -23 10 -23 15 0 5 -9 9 -19 9 -11 0 -26 9 -34 21
-18 25 -30 4 -14 -25 7 -15 5 -22 -7 -32 -15 -11 -15 -12 1 -18 10 -4 14 -4
10 0 -4 4 -2 13 4 21 10 11 17 8 40 -18 16 -18 26 -36 23 -40 -3 -5 2 -9 10
-9 17 0 56 -46 56 -67 0 -11 -8 -10 -35 7 -19 12 -80 37 -135 55 -92 32 -107
34 -178 28 -42 -3 -74 -3 -71 1 19 21 104 74 111 70 5 -3 7 0 6 8 -2 7 2 12 9
11 8 -2 10 4 6 14 -4 11 -3 14 5 9 7 -4 15 -1 18 8 4 9 15 14 28 12 11 -2 15
-1 9 1 -7 3 -13 11 -13 19 0 8 4 13 9 10 5 -4 12 0 14 6 3 8 6 7 6 -4 1 -9 9
-22 19 -27 14 -9 15 -12 3 -20 -10 -7 -7 -9 11 -8 l26 2 -31 35 c-17 19 -37
34 -45 32 -8 -2 -11 1 -8 7 6 9 -98 141 -112 141 -8 0 -58 46 -89 83 -13 15
-20 33 -17 41 3 8 1 17 -5 21 -7 3 -8 0 -5 -9 12 -31 -6 -15 -19 17 -8 17 -47
61 -88 97 -121 105 -214 221 -269 335 -49 101 -71 159 -53 140 5 -5 50 -68 98
-140z m-1615 126 c0 -5 -7 -11 -14 -14 -10 -4 -13 -1 -9 9 6 15 23 19 23 5z
m235 0 c3 -5 2 -12 -3 -15 -5 -3 -9 1 -9 9 0 17 3 19 12 6z m2202 -59 c9 -12
13 -25 9 -29 -3 -3 -6 -1 -6 5 0 6 -8 9 -17 6 -12 -4 -14 -3 -6 3 10 7 9 14
-3 31 -8 12 -21 22 -29 22 -8 0 -17 4 -20 10 -4 6 1 7 11 3 13 -5 15 -3 10 8
-9 17 28 -26 51 -59z m-2337 46 c0 -7 -4 -19 -9 -27 -11 -17 -23 1 -15 23 7
19 24 21 24 4z m-290 -25 c-1 -24 -2 -26 -11 -10 -5 9 -7 22 -4 27 10 17 15
11 15 -17z m330 -10 c0 -20 -3 -24 -11 -16 -7 7 -9 19 -6 27 10 24 17 19 17
-11z m66 -17 c10 -8 17 -16 14 -19 -8 -8 -50 11 -50 23 0 14 13 13 36 -4z
m2155 -23 c13 -16 12 -17 -3 -4 -10 7 -18 15 -18 17 0 8 8 3 21 -13z m-1914
-29 l28 -23 -24 -1 c-23 0 -61 25 -61 40 0 14 30 6 57 -16z m2036 -17 c-2 -4
-9 -4 -15 -1 -7 4 -8 2 -4 -4 4 -6 13 -9 21 -6 13 5 52 -51 47 -68 -1 -5 2 -8
8 -8 5 0 17 -14 26 -31 8 -17 11 -28 5 -25 -6 4 -11 3 -11 -2 0 -5 8 -12 18
-15 11 -2 21 -14 24 -25 4 -16 2 -19 -11 -15 -12 3 -11 1 3 -11 11 -9 23 -16
27 -16 9 0 31 -62 24 -68 -3 -3 -5 0 -5 7 0 7 -4 10 -10 6 -5 -3 -7 -13 -4
-23 5 -14 4 -14 -6 1 -9 14 -9 22 -1 30 6 6 11 16 11 22 0 5 -4 4 -9 -4 -6 -9
-31 25 -87 119 -44 73 -78 139 -76 147 2 8 -1 12 -7 9 -5 -4 -13 -1 -17 5 -4
7 -3 9 4 5 6 -3 14 -1 17 4 5 7 12 5 20 -7 7 -10 11 -21 8 -26z m-2643 -9 l-1
-43 -18 35 c-20 37 -19 50 5 50 10 0 14 -12 14 -42z m64 -32 c-6 -53 -23 -72
-39 -46 -6 10 34 114 42 107 2 -2 1 -30 -3 -61z m631 32 c19 -18 37 -46 41
-63 7 -34 7 -33 -55 43 -48 58 -40 70 14 20z m-545 -72 c-24 -74 -41 -94 -60
-71 -10 12 -4 27 32 83 23 38 44 65 46 61 2 -5 -6 -38 -18 -73z m2448 12 c27
-40 47 -79 44 -87 -3 -8 0 -11 6 -7 15 9 27 -13 14 -26 -7 -7 -17 3 -31 31
-12 22 -19 41 -16 41 3 0 -3 10 -15 22 -11 12 -20 27 -20 34 0 6 -6 14 -14 17
-12 5 -30 47 -20 47 2 0 25 -33 52 -72z m-5714 0 c-4 -7 -28 -44 -54 -83 -117
-176 -269 -468 -344 -663 -18 -45 -35 -80 -37 -78 -3 3 -5 -3 -5 -12 0 -9 -16
-63 -34 -119 -33 -98 -36 -103 -62 -103 -15 0 -28 3 -28 6 0 12 93 279 99 284
3 3 6 10 7 15 1 23 17 65 24 65 4 0 11 16 14 35 4 20 11 33 16 30 6 -3 7 0 4
8 -2 7 28 79 69 158 97 190 105 203 200 347 72 109 84 122 109 122 21 0 27 -4
22 -12z m5253 -196 c112 -147 144 -205 82 -146 -94 88 -190 235 -204 314 -5
31 -2 27 29 -28 19 -35 61 -98 93 -140z m-1872 56 c-15 -30 -37 -68 -51 -84
-20 -24 -25 -27 -34 -14 -5 8 -7 22 -4 30 3 8 2 11 -2 7 -4 -4 -16 8 -27 25
-13 21 -15 34 -8 36 6 2 18 11 27 19 24 24 29 6 10 -34 -13 -27 -14 -33 -3
-25 7 7 16 9 19 7 3 -3 25 17 48 45 23 28 45 49 47 46 2 -2 -7 -29 -22 -58z
m-1593 -33 c3 -22 3 -32 1 -22 -4 15 -7 16 -19 6 -12 -10 -12 -14 -2 -20 7 -4
10 -11 6 -14 -8 -8 -38 23 -37 38 0 8 2 8 6 -1 2 -6 9 -10 13 -7 5 3 7 12 4
19 -3 8 -1 17 5 21 6 3 11 11 11 17 0 6 -9 3 -20 -7 -24 -22 -27 -13 -4 10 21
21 31 10 36 -40z m4013 35 c3 -5 -1 -10 -10 -10 -9 0 -13 5 -10 10 3 6 8 10
10 10 2 0 7 -4 10 -10z m-2496 -150 c8 -13 18 -10 71 18 35 18 64 31 67 29 3
-4 -33 -41 -144 -150 -18 -17 -33 -26 -33 -20 0 6 -16 39 -35 73 -23 41 -32
67 -27 76 6 11 14 -1 27 -40 11 -31 23 -56 28 -56 11 0 1 33 -28 93 -20 40
-22 53 -13 79 l11 30 33 -58 c18 -33 37 -66 43 -74z m2511 121 c0 -17 -18 -21
-24 -6 -3 9 0 15 9 15 8 0 15 -4 15 -9z m21 -38 c13 -16 12 -17 -3 -4 -10 7
-18 15 -18 17 0 8 8 3 21 -13z m-2381 -8 c0 -2 -24 -16 -52 -30 -46 -23 -50
-23 -28 -5 34 28 80 49 80 35z m-1893 -146 c84 -112 220 -245 285 -276 l45
-23 772 0 c456 0 771 -4 771 -9 0 -19 -81 -111 -122 -138 -74 -51 -96 -55
-238 -52 -71 2 -130 3 -130 2 0 0 30 -21 68 -44 55 -36 77 -44 127 -47 55 -4
67 -1 147 41 99 51 117 64 333 248 170 144 258 233 355 355 33 41 60 71 60 65
0 -5 -20 -59 -44 -118 -72 -176 -89 -242 -84 -331 3 -58 11 -92 31 -137 l28
-60 -58 -49 c-98 -83 -295 -287 -354 -366 -31 -41 -123 -169 -204 -285 -82
-115 -196 -272 -254 -348 -167 -218 -263 -352 -471 -652 -180 -261 -435 -607
-477 -648 -10 -10 -27 -24 -37 -31 -18 -12 -12 -14 55 -20 140 -13 220 -47
469 -196 130 -78 310 -173 410 -217 41 -18 69 -33 63 -33 -26 0 -434 131 -603
193 -96 36 -287 110 -425 165 -137 54 -308 121 -380 147 -71 27 -131 49 -133
51 -7 4 360 467 967 1218 167 208 186 238 226 371 39 131 80 201 221 380 69
88 127 162 129 165 2 3 -236 4 -528 2 l-530 -3 69 57 c38 31 99 77 137 102 37
25 66 46 64 48 -1 2 -39 -3 -82 -11 -44 -7 -114 -15 -155 -17 l-75 -4 3 -46
c3 -35 -8 -79 -42 -180 -54 -159 -66 -229 -67 -393 -1 -69 -4 -125 -8 -125
-18 1 -67 95 -129 251 -83 208 -132 308 -200 408 l-50 74 19 48 c51 130 44
230 -31 448 -53 153 -59 181 -32 141 9 -14 49 -68 89 -121z m4324 81 c-5 -3
-5 -14 0 -25 4 -11 8 -14 8 -7 1 10 6 10 21 2 16 -9 18 -8 14 5 -4 8 -1 15 5
15 6 0 11 -14 11 -31 0 -20 -4 -28 -12 -23 -7 4 -8 3 -4 -5 10 -16 -1 -61 -15
-61 -6 0 -7 5 -4 10 3 6 2 10 -2 10 -5 0 -19 21 -31 46 -12 25 -18 43 -13 40
4 -3 9 6 9 21 0 25 -1 26 -14 8 -8 -10 -14 -14 -14 -8 0 7 5 15 11 18 6 4 8
14 5 24 -4 9 2 5 13 -9 11 -13 16 -27 12 -30z m-41 30 c0 -5 -2 -10 -4 -10 -3
0 -8 5 -11 10 -3 6 -1 10 4 10 6 0 11 -4 11 -10z m90 -3 c0 -8 -6 -14 -14 -14
-8 0 -12 6 -9 14 3 7 9 13 14 13 5 0 9 -6 9 -13z m-4144 -33 c1 -9 0 -13 -4
-10 -3 4 -7 14 -8 22 -1 9 0 13 4 10 3 -4 7 -14 8 -22z m30 -26 c4 -7 4 -10
-1 -6 -4 4 -15 2 -24 -5 -14 -11 -14 -10 -2 6 16 20 18 21 27 5z m3357 -22 c4
-11 1 -13 -10 -9 -11 4 -14 2 -9 -5 4 -7 14 -12 22 -12 8 0 14 -4 14 -10 0
-16 -15 -12 -33 8 -13 14 -14 21 -5 30 15 15 15 15 21 -2z m-4658 -74 c-28
-44 -57 -72 -68 -65 -6 3 -7 1 -3 -5 9 -14 -66 -65 -128 -85 -56 -19 -126 -58
-146 -81 -9 -12 3 -9 41 8 30 13 88 32 129 41 41 10 109 34 150 53 41 18 86
38 100 44 l25 9 -27 -28 -27 -28 122 -1 c67 0 133 -5 147 -11 22 -9 17 -11
-40 -17 -36 -3 -83 -7 -105 -9 l-40 -2 49 -24 c27 -14 74 -48 105 -76 31 -28
65 -57 76 -63 19 -11 19 -11 -5 -11 -14 0 -58 6 -98 13 -40 7 -74 10 -77 8 -8
-9 28 -53 69 -83 39 -29 40 -30 11 -23 -16 4 -72 23 -124 42 -60 23 -96 32
-98 25 -3 -7 -14 -8 -31 -3 -27 7 -29 11 -17 43 8 20 -12 23 -65 6 -31 -9
-194 -20 -186 -12 2 2 57 19 122 37 90 25 112 35 89 37 l-30 4 30 18 30 18
-50 -4 c-52 -4 -163 -48 -177 -70 -5 -8 -8 -6 -8 7 0 17 -1 17 -27 1 -25 -15
-25 -13 5 14 47 45 32 38 -57 -24 -43 -30 -83 -55 -88 -55 -6 0 -32 -24 -58
-52 -27 -29 -53 -52 -58 -50 -5 1 -5 -2 -2 -8 8 -14 -43 -90 -60 -90 -18 0
-71 28 -85 45 -6 8 -9 23 -6 33 4 11 2 31 -3 46 -10 24 -9 26 18 26 24 0 34 8
56 48 60 103 228 302 255 302 5 0 0 -22 -11 -50 -22 -57 -11 -66 20 -17 11 18
31 42 43 53 l23 19 -18 -22 c-26 -30 -5 -38 41 -14 21 11 67 27 102 36 76 20
128 45 155 75 25 28 32 8 10 -28z m-991 10 c3 -5 -1 -9 -9 -9 -8 0 -15 4 -15
9 0 4 4 8 9 8 6 0 12 -4 15 -8z m5411 -66 c19 -41 35 -78 35 -84 0 -5 -15 -13
-32 -19 -28 -8 -33 -14 -32 -39 l2 -29 -11 28 c-11 27 -13 28 -67 23 -30 -3
-91 -8 -135 -12 -44 -3 -107 -9 -140 -14 -42 -5 -62 -4 -67 4 -5 7 -8 7 -8 -3
0 -9 -7 -11 -22 -7 -13 3 -70 1 -128 -5 -58 -6 -118 -9 -135 -7 -30 4 -29 5
19 27 27 13 144 47 260 76 194 49 346 97 392 124 11 6 22 11 26 11 4 0 24 -33
43 -74z m-5485 54 c0 -5 -2 -10 -4 -10 -3 0 -8 5 -11 10 -3 6 -1 10 4 10 6 0
11 -4 11 -10z m25 -38 c-3 -3 -11 0 -18 7 -9 10 -8 11 6 5 10 -3 15 -9 12 -12z
m5240 -162 c3 -5 1 -10 -4 -10 -6 0 -11 5 -11 10 0 6 2 10 4 10 3 0 8 -4 11
-10z m-3740 -45 c56 -17 102 -39 144 -70 71 -52 78 -69 24 -59 -45 8 -45 8 69
-76 48 -36 83 -66 79 -68 -4 -1 -37 11 -74 29 -65 30 -133 91 -122 109 6 10
-140 110 -159 110 -6 -1 18 -28 54 -62 48 -45 59 -59 40 -53 -14 4 -45 12 -69
19 -31 9 -54 25 -79 56 -20 24 -57 56 -82 73 l-45 29 69 -6 c37 -3 105 -17
151 -31z m3765 24 c-11 -7 -3 -9 30 -6 25 2 51 5 59 8 9 2 16 -4 19 -16 2 -11
9 -24 16 -30 10 -9 13 -22 6 -42 -1 -5 -1 -16 -1 -26 1 -9 -5 -24 -13 -33 -9
-8 -16 -20 -16 -27 0 -6 7 -2 15 9 8 10 14 15 14 9 0 -16 -25 -45 -32 -38 -4
3 -7 -1 -7 -11 0 -10 -5 -14 -12 -10 -6 4 -8 3 -5 -4 6 -9 -80 -101 -188 -201
-45 -41 -122 -158 -146 -221 -10 -25 -31 -75 -47 -111 -48 -105 -49 -121 -7
-67 21 26 41 45 46 42 5 -3 8 -1 7 4 -2 5 11 25 27 43 17 19 51 61 77 94 60
79 93 109 109 100 7 -5 10 -4 5 3 -3 6 -2 13 3 16 24 15 17 -15 -17 -70 -82
-131 -94 -161 -102 -255 -4 -49 -10 -92 -13 -96 -4 -3 -7 -1 -7 5 0 23 -16 12
-29 -20 -38 -94 -101 -338 -101 -391 0 -21 20 5 101 131 39 59 59 71 59 34 0
-15 -2 -15 -10 -2 -8 13 -11 11 -16 -7 -4 -13 -11 -23 -16 -23 -5 0 -6 -4 -3
-10 3 -5 8 -29 11 -52 3 -24 8 -44 12 -45 9 -4 -1 -149 -10 -159 -5 -4 -8 5
-8 20 0 16 -4 25 -10 21 -9 -5 -15 16 -11 38 1 5 -3 6 -8 3 -5 -4 -12 3 -16
14 -3 11 -11 20 -16 20 -5 0 -6 -43 -2 -105 l6 -105 -35 -57 c-57 -94 -86
-157 -104 -228 -18 -70 -28 -71 -39 -3 -4 21 -10 40 -15 43 -5 3 -18 -39 -30
-92 -13 -54 -35 -123 -50 -153 -15 -30 -40 -91 -56 -134 l-28 -79 -13 39 c-22
64 -42 210 -49 354 -8 181 39 624 82 763 19 60 -64 -48 -128 -168 l-37 -70 -1
60 c0 133 54 285 142 403 27 35 48 67 48 73 0 12 -14 11 -27 -2 -7 -7 -78 -13
-190 -16 l-178 -4 50 32 c80 52 197 97 310 119 132 25 131 25 111 -5 -18 -27
-21 -61 -7 -69 5 -3 12 5 15 17 8 32 98 170 156 237 63 74 150 188 150 197 0
4 -15 -7 -32 -24 -50 -48 -165 -116 -248 -148 -41 -16 -81 -33 -88 -38 -7 -6
-14 -8 -17 -6 -9 10 294 277 430 379 81 60 143 111 139 112 -5 0 -16 2 -24 2
-8 1 -14 8 -12 15 1 7 -2 10 -8 6 -5 -3 -16 -3 -22 2 -9 5 -3 10 17 14 45 10
51 10 35 -2z m-107 -16 c-7 -2 -21 -2 -30 0 -10 3 -4 5 12 5 17 0 24 -2 18 -5z
m795 -38 c-3 -3 -9 2 -12 12 -6 14 -5 15 5 6 7 -7 10 -15 7 -18z m-21 -17 c-3
-8 -6 -5 -6 6 -1 11 2 17 5 13 3 -3 4 -12 1 -19z m-5100 -54 c-3 -3 -12 -4
-19 -1 -8 3 -5 6 6 6 11 1 17 -2 13 -5z m100 -20 c-3 -3 -12 -4 -19 -1 -8 3
-5 6 6 6 11 1 17 -2 13 -5z m-61 -29 c15 -14 36 -25 48 -26 12 0 -7 -7 -41
-14 -35 -8 -73 -21 -85 -29 -26 -19 -38 -20 -38 -5 0 5 5 7 10 4 6 -3 10 -2
10 4 0 5 -5 13 -10 16 -7 4 -7 13 0 26 6 10 7 19 3 19 -4 0 2 7 13 15 28 21
60 18 90 -10z m289 -53 c-3 -3 -11 0 -18 7 -9 10 -8 11 6 5 10 -3 15 -9 12
-12z m4821 -86 c32 -55 61 -143 50 -153 -2 -3 -14 1 -27 7 -20 11 -21 10 -16
-9 3 -12 0 -19 -7 -18 -6 1 -10 -4 -8 -11 1 -8 -2 -11 -8 -7 -7 4 -7 12 0 26
8 15 7 19 -4 19 -8 0 -17 -6 -20 -12 -3 -7 -4 -4 -3 7 1 15 -3 19 -20 17 -12
-2 -24 2 -28 8 -3 5 -27 10 -53 10 -26 1 -60 7 -77 14 l-30 12 50 13 c28 7 60
19 73 27 l23 15 -21 29 c-11 15 -20 31 -20 34 0 3 17 21 38 41 l37 35 18 -23
c10 -12 34 -49 53 -81z m-5389 19 c-66 -64 -97 -80 -97 -50 0 8 17 24 38 34
20 11 53 34 72 50 65 56 56 31 -13 -34z m609 42 c4 -4 0 -7 -9 -7 -9 0 -18 4
-21 9 -7 10 20 9 30 -2z m428 -59 c66 -67 76 -83 118 -188 40 -98 72 -216 55
-200 -14 14 -81 151 -94 195 -24 78 -120 230 -160 254 -12 7 -13 10 -4 11 7 0
46 -33 85 -72z m-575 15 c21 -17 20 -18 -54 -15 -45 2 -110 -3 -158 -13 -45
-9 -86 -17 -92 -18 -5 -1 -11 8 -13 19 -3 20 3 22 85 31 146 17 208 15 232 -4z
m5584 -3 c-3 -11 -7 -20 -9 -20 -2 0 -4 9 -4 20 0 11 4 20 9 20 5 0 7 -9 4
-20z m-4864 -45 c34 -39 84 -131 79 -146 -2 -5 -20 5 -41 22 -20 17 -35 34
-32 39 3 4 -15 35 -39 68 -62 84 -37 96 33 17z m-1380 21 l24 -13 -24 -16
c-13 -8 -46 -26 -74 -41 l-50 -25 60 -2 c33 -1 71 0 85 1 l25 1 -22 -16 c-12
-8 -48 -20 -80 -26 -32 -6 -62 -15 -67 -20 -14 -13 41 -11 66 2 18 10 25 8 40
-11 24 -29 23 -43 -1 -30 -11 5 -31 10 -45 10 -23 0 -25 -3 -20 -30 6 -28 6
-29 -23 -21 -17 5 -36 5 -44 0 -8 -5 -24 -9 -36 -9 -13 0 -23 -4 -23 -10 0 -5
8 -10 18 -10 9 0 23 -9 30 -20 14 -23 13 -24 -24 -10 -21 8 -31 7 -44 -5 -22
-20 -76 -25 -72 -7 1 8 -2 11 -8 7 -13 -8 -42 14 -34 26 3 5 -1 6 -9 3 -19 -7
-67 54 -67 84 0 19 6 22 43 22 48 0 63 7 219 107 62 40 118 72 123 72 6 0 21
-6 34 -13z m1372 -88 c6 -11 6 -18 0 -18 -11 0 -41 41 -60 80 -10 20 -6 17 19
-10 17 -19 35 -43 41 -52z m4424 42 c26 -10 75 -56 75 -71 0 -5 -14 -9 -30 -9
-22 0 -43 12 -75 41 -25 23 -45 46 -45 51 0 10 29 6 75 -12z m225 -185 c0 -82
62 -228 102 -240 26 -9 31 -37 10 -64 -24 -33 -49 -42 -33 -12 10 19 9 21 -12
21 -12 0 -27 -4 -33 -10 -12 -12 -74 26 -74 46 0 18 3 18 50 -6 57 -29 82 -26
40 5 -19 14 -42 25 -52 25 -21 0 -46 40 -26 41 7 0 3 4 -8 9 -24 10 -39 47
-18 47 7 0 12 -5 11 -11 -1 -6 5 -11 13 -11 10 0 14 9 13 25 -9 111 -15 162
-23 191 -16 53 -11 57 15 14 14 -22 25 -54 25 -70z m-4615 64 c29 -35 89 -148
82 -156 -8 -8 -66 70 -97 129 -32 64 -26 75 15 27z m-182 -70 c32 -68 47 -143
46 -222 l-1 -62 -9 50 c-5 28 -15 73 -23 100 l-14 50 -1 -37 c-2 -93 -55 -259
-114 -360 -24 -41 -106 -125 -212 -216 -33 -28 -40 -37 -20 -26 l30 16 -24
-20 c-14 -11 -30 -18 -37 -15 -7 2 -15 -1 -20 -8 -4 -8 -3 -10 4 -5 7 4 12 3
12 -2 0 -9 -80 -64 -135 -92 -46 -23 -302 -197 -373 -252 -35 -27 -66 -48 -68
-45 -2 2 18 32 46 66 27 34 50 65 50 67 0 3 -27 -13 -59 -36 -74 -52 -195
-176 -248 -256 -52 -76 -167 -295 -194 -366 l-20 -53 7 55 c26 220 118 407
272 551 42 40 73 70 67 68 -5 -2 -43 -21 -83 -42 -135 -70 -110 -32 74 110 64
49 131 86 250 138 180 78 278 131 345 186 35 28 87 70 116 93 29 22 50 42 48
45 -3 2 -53 -28 -112 -67 -106 -70 -249 -143 -308 -157 -22 -5 -5 11 59 57
122 86 276 235 335 323 54 81 77 139 90 230 5 35 9 47 10 30 1 -27 3 -28 15
-12 19 24 26 21 26 -12 0 -30 -39 -174 -67 -249 -9 -23 -14 -45 -11 -47 7 -8
94 165 113 225 22 70 35 84 36 40 0 -19 4 -44 9 -55 6 -17 9 -14 15 18 4 21 9
36 11 34 3 -2 8 -31 13 -63 l9 -59 3 80 c6 154 4 260 -5 280 -20 47 23 -22 47
-76z m4921 55 c3 -8 2 -12 -4 -9 -6 3 -10 10 -10 16 0 14 7 11 14 -7z m23 -26
c-3 -8 -6 -5 -6 6 -1 11 2 17 5 13 3 -3 4 -12 1 -19z m-6401 -153 c24 -37 12
-40 -21 -5 -22 23 -25 30 -12 30 9 0 24 -11 33 -25z m853 -96 c1 -54 -16 -150
-28 -162 -15 -15 -76 -24 -99 -16 -34 13 -26 27 16 31 33 3 39 8 60 51 13 27
26 78 29 115 7 73 21 62 22 -19z m-516 -49 c50 -18 69 -42 37 -47 -26 -4 -132
60 -159 96 l-26 35 48 -33 c27 -18 72 -41 100 -51z m117 19 c0 -14 -5 -11 -31
17 l-24 27 28 -18 c15 -9 27 -21 27 -26z m5224 -72 c37 -26 116 -134 116 -158
0 -27 -25 -23 -38 6 -6 14 -18 25 -25 25 -8 0 -20 11 -27 25 -16 29 -25 31
-38 9 -7 -13 -11 -11 -20 13 -6 15 -13 47 -15 71 -5 45 -5 45 47 9z m-5311
-36 c34 -18 38 -46 5 -35 -19 6 -21 4 -13 -8 6 -7 3 -7 -5 3 -9 9 -25 21 -35
27 -11 5 -28 24 -39 42 l-18 32 38 -24 c22 -13 51 -30 67 -37z m5135 -22 c38
-31 76 -53 98 -56 58 -10 49 -23 -17 -23 -61 0 -63 1 -110 49 -44 43 -63 81
-41 81 4 0 35 -23 70 -51z m-5285 -5 c9 -9 -47 -88 -97 -138 -23 -22 -32 -34
-21 -26 14 9 12 5 -5 -13 -23 -24 -48 -34 -90 -36 -10 -1 -8 -6 8 -17 31 -22
29 -54 -4 -54 -41 0 -23 -24 25 -33 34 -7 41 -12 36 -25 -4 -9 -10 -36 -12
-60 -5 -40 -3 -45 45 -93 50 -50 50 -50 20 -43 -30 6 -39 12 -73 42 -8 7 -20
10 -26 6 -7 -4 -9 -3 -6 3 4 6 0 13 -8 17 -8 3 -15 16 -15 28 0 30 -15 52 -29
44 -19 -12 -13 -98 9 -133 19 -31 19 -32 1 -21 -31 19 -53 67 -58 129 -5 46
-3 60 9 64 12 5 14 22 10 83 l-4 77 95 94 c76 75 103 95 134 101 21 4 41 8 44
9 3 0 8 -2 12 -5z m2772 -91 c-26 -91 -67 -158 -178 -293 -75 -91 -110 -126
-132 -132 -87 -22 -239 -57 -241 -55 -1 1 34 34 78 72 44 39 171 163 282 277
110 114 202 203 204 198 2 -5 -4 -36 -13 -67z m2433 19 c3 -17 10 -22 34 -22
19 0 28 -4 26 -12 -5 -15 -97 -21 -113 -8 -5 4 -30 13 -54 20 -54 14 -44 26
29 39 69 11 74 10 78 -17z m-3461 -117 c41 -29 34 -95 -12 -95 -18 0 -25 5
-25 20 0 21 -35 41 -57 33 -26 -10 -12 -53 37 -114 38 -47 50 -71 50 -96 0
-43 -22 -43 -38 0 -7 18 -28 52 -47 74 -19 22 -31 44 -27 48 4 5 2 5 -5 1 -15
-8 -43 31 -43 62 0 13 13 37 29 53 24 23 38 29 73 29 24 0 53 -7 65 -15z
m-1658 -7 c-1 -7 -5 -24 -9 -38 -7 -23 -8 -23 -9 -3 -1 12 -4 28 -7 37 -4 11
-1 16 10 16 9 0 16 -6 15 -12z m5775 -60 c15 -31 31 -77 33 -103 5 -42 3 -49
-28 -81 -18 -19 -39 -34 -47 -34 -8 0 -30 -16 -48 -36 -43 -45 -44 -24 -2 52
28 53 32 70 36 162 5 118 13 124 56 40z m-1134 -38 c0 -22 -3 -40 -7 -40 -5 0
-7 17 -6 37 2 44 2 43 8 43 3 0 5 -18 5 -40z m919 -24 c8 -30 7 -45 -4 -67
-19 -36 -35 -46 -35 -21 0 28 -11 34 -26 14 -20 -26 -18 1 8 75 24 72 37 71
57 -1z m-1743 8 c27 -29 31 -52 9 -60 -8 -4 -13 -10 -10 -14 3 -5 1 -11 -5
-15 -5 -3 -10 -15 -10 -26 0 -14 7 -19 28 -20 l27 -1 -27 -11 c-27 -10 -28
-14 -28 -75 0 -70 -1 -70 56 -20 21 19 21 19 33 -38 15 -79 15 -81 -18 -50
-24 24 -32 26 -50 17 -17 -10 -21 -21 -21 -66 0 -30 -4 -55 -9 -55 -9 0 -21
47 -21 83 0 20 -46 77 -62 77 -4 0 -8 -11 -8 -23 0 -13 -9 -32 -20 -42 -11
-10 -20 -15 -20 -12 0 13 30 120 35 125 3 3 21 -10 40 -28 l35 -34 0 62 c0 34
-1 62 -2 62 -2 0 -21 7 -43 15 l-40 14 42 1 c23 0 44 4 47 9 5 8 -28 59 -47
72 -14 10 3 31 20 25 8 -3 11 -1 8 5 -6 9 21 49 33 49 3 0 15 -11 28 -26z
m1303 -10 l22 -37 -23 7 c-13 3 -28 6 -35 6 -9 0 -9 8 -2 30 6 17 12 30 14 30
2 0 13 -16 24 -36z m321 -14 c0 -5 -4 -10 -10 -10 -5 0 -16 -15 -24 -34 -18
-44 -63 -56 -77 -19 -18 48 -12 61 29 66 72 7 82 7 82 -3z m-209 -64 c80 0 66
-21 -18 -29 -51 -5 -69 -3 -77 8 -6 8 -22 19 -36 25 -20 8 -15 9 25 3 28 -4
75 -7 106 -7z m410 -57 c-12 -15 -21 -41 -21 -56 l-1 -28 -14 25 c-22 38 -18
61 18 98 30 32 32 32 35 11 2 -12 -6 -34 -17 -50z m-2325 -31 c-48 -51 -152
-164 -232 -250 -80 -87 -153 -162 -162 -167 -10 -5 -34 -12 -55 -16 l-37 -7
78 131 c42 73 102 166 132 209 l55 77 130 46 c72 25 139 50 150 57 11 6 22 12
24 12 2 0 -35 -42 -83 -92z m2584 47 c0 -27 -37 -89 -71 -120 -22 -21 -30 -24
-26 -12 11 30 -12 9 -33 -31 -10 -20 -19 -31 -20 -24 0 23 37 86 70 117 17 17
38 42 46 58 16 30 34 36 34 12z m-4429 -126 c74 -25 137 -95 111 -121 -9 -9
-12 -9 -12 1 0 7 -4 10 -9 7 -14 -9 -23 25 -11 39 8 10 8 15 -1 21 -7 4 -9 3
-5 -4 13 -21 -13 -22 -46 -2 -39 24 -92 26 -132 5 -23 -12 -32 -13 -45 -3 -14
11 -14 11 -4 -3 17 -21 5 -33 -16 -16 -14 10 -14 10 -3 -5 10 -12 11 -22 3
-37 -6 -11 -11 -38 -11 -61 0 -23 5 -50 11 -61 8 -15 7 -25 -2 -37 -11 -14
-11 -15 1 -5 10 10 19 7 42 -12 62 -52 155 -55 290 -9 98 33 123 31 164 -10
26 -26 34 -42 34 -70 0 -37 -30 -75 -59 -77 -9 0 -26 -2 -38 -5 -36 -6 -28 21
12 45 35 20 48 62 25 76 -6 4 -8 11 -5 16 11 17 -61 9 -146 -17 -69 -21 -99
-25 -166 -21 -74 3 -87 7 -120 34 -56 45 -78 88 -77 153 0 30 7 66 14 80 18
36 51 70 62 64 5 -3 7 0 6 8 -2 8 6 13 19 12 12 0 20 3 17 7 -4 7 15 13 52 18
6 0 26 -4 45 -10z m4368 -35 c-6 -8 -15 -12 -18 -8 -3 4 0 9 7 11 6 3 9 10 6
15 -4 7 -2 8 5 4 9 -6 9 -11 0 -22z m144 -33 c12 -12 -9 -60 -31 -68 -17 -7
-23 0 -25 26 -1 24 -40 36 -83 25 -37 -9 -24 7 19 23 36 14 104 10 120 -6z
m-4554 -18 c-12 -15 -12 -16 4 -10 31 12 17 -8 -18 -24 -23 -11 -39 -13 -51
-6 -11 6 -15 6 -10 -1 3 -6 1 -14 -5 -17 -7 -5 -10 -1 -7 10 2 12 14 18 36 20
18 2 36 6 40 10 4 4 -3 5 -15 3 -12 -1 -21 1 -20 7 1 5 10 8 20 7 9 -2 17 2
17 7 0 6 5 11 11 11 8 0 7 -6 -2 -17z m319 -15 c-16 -24 -46 -40 -33 -17 5 8
4 11 -1 6 -5 -5 -9 -13 -9 -19 0 -6 -43 -28 -95 -49 -120 -49 -202 -53 -247
-15 -15 13 -24 28 -20 32 5 5 18 -2 29 -16 l20 -25 -16 27 c-19 32 -20 38 -6
38 6 0 10 -7 10 -15 0 -26 42 -55 79 -54 l36 1 -35 13 -35 13 42 1 c23 1 49 4
59 8 10 4 15 2 11 -3 -3 -5 3 -10 13 -10 13 0 16 4 9 12 -6 8 7 16 48 28 32 9
78 28 103 41 56 30 56 30 38 3z m3583 -86 c-28 -40 -40 -102 -41 -209 0 -136
3 -138 71 -62 46 51 58 60 59 43 0 -12 -16 -38 -35 -58 -19 -21 -35 -43 -35
-49 -1 -7 -14 -39 -29 -72 l-28 -60 -21 35 c-21 34 -26 34 -22 -3 2 -27 -30
-106 -71 -172 l-38 -60 -11 30 c-17 45 -25 178 -11 203 14 26 5 28 -21 5 -17
-15 -18 -15 -18 4 0 20 31 86 65 138 l20 30 -44 -34 -43 -35 6 35 c8 36 55
141 79 173 13 18 14 16 11 -15 l-4 -34 15 30 c9 20 14 24 15 12 0 -21 36 18
88 95 27 39 41 52 60 57 2 1 -6 -12 -17 -27z m-5969 -2 c85 -32 183 -148 146
-172 -23 -14 -32 -8 -64 40 -75 115 -242 131 -347 33 -78 -72 -96 -189 -42
-277 39 -62 131 -114 203 -114 121 0 232 107 232 224 0 29 16 33 45 13 15 -12
17 -22 11 -57 -13 -82 -69 -156 -150 -198 -71 -36 -187 -38 -263 -3 -166 74
-213 258 -107 413 71 102 214 144 336 98z m7075 -8 c151 -78 209 -238 137
-379 -52 -101 -135 -147 -270 -147 -80 0 -149 22 -183 58 -22 23 -22 24 -3 30
10 4 40 -4 68 -16 68 -31 182 -32 239 -1 146 78 169 255 47 365 -109 98 -273
82 -347 -34 -31 -48 -40 -54 -64 -39 -11 7 -10 17 8 55 28 56 81 102 141 121
63 21 173 14 227 -13z m-210 -147 c-3 -19 -1 -33 3 -30 5 3 10 2 12 -2 5 -13
73 -61 89 -63 29 -5 41 0 36 14 -4 11 -1 13 10 9 14 -5 13 -9 -7 -25 -13 -10
-29 -17 -35 -14 -7 2 -18 0 -25 -4 -20 -13 -87 25 -105 60 -9 18 -11 31 -5 35
6 4 8 11 4 16 -5 9 12 39 23 39 3 0 3 -16 0 -35z m-6897 15 c10 -6 11 -10 3
-10 -7 0 -13 -5 -13 -11 0 -5 5 -7 10 -4 6 3 10 1 10 -5 0 -7 -7 -10 -15 -6
-10 4 -15 -1 -15 -14 0 -23 4 -24 29 -8 10 6 26 8 36 4 26 -10 -1 -37 -31 -32
-13 3 -24 0 -24 -6 0 -5 6 -8 14 -5 20 8 36 -13 36 -45 0 -15 5 -28 11 -28 8
0 4 -36 -6 -48 -5 -6 -34 11 -30 18 3 4 -2 11 -11 14 -11 4 -14 15 -10 40 4
25 1 36 -10 40 -9 3 -12 11 -8 18 4 7 -2 5 -13 -4 -11 -10 -25 -18 -32 -18 -7
0 -9 -4 -6 -10 3 -5 1 -10 -4 -10 -6 0 -11 7 -11 15 0 8 7 15 16 15 9 0 12 5
8 12 -4 6 -3 9 2 6 5 -3 15 0 22 8 11 12 9 13 -8 11 -11 -2 -26 -9 -32 -15
-19 -19 -45 -14 -51 9 -5 19 -4 20 19 4 26 -16 32 -8 12 15 -11 12 -10 12 4 1
21 -16 38 -7 38 20 0 11 4 18 9 15 5 -4 17 -3 27 1 16 6 16 7 -2 14 -13 5 -14
8 -4 8 8 0 22 -4 30 -9z m1682 -22 c-3 -26 0 -28 32 -28 29 0 43 -8 78 -46 56
-60 59 -66 64 -130 2 -30 8 -63 13 -73 11 -19 63 -67 97 -88 17 -11 16 -12
-14 -12 -74 -2 -172 85 -172 153 0 37 -22 82 -38 79 -6 -2 -9 3 -6 11 3 8 1
17 -5 21 -6 3 -11 19 -11 36 0 22 -5 29 -18 29 -11 0 -27 9 -37 20 -24 27 -35
25 -72 -9 -18 -16 -34 -27 -36 -25 -2 3 -10 -3 -18 -13 -12 -14 -12 -16 0 -8
10 6 12 4 7 -4 -5 -7 -14 -10 -21 -7 -15 5 -42 -21 -31 -31 3 -3 6 -1 6 6 0 7
5 9 12 5 7 -5 8 -3 3 6 -5 9 -4 11 4 6 9 -6 9 -11 -1 -23 -32 -39 -21 -88 33
-142 30 -30 37 -41 24 -41 -40 0 -113 65 -119 105 -1 7 -7 19 -12 26 -30 39
-26 51 38 111 78 73 122 98 168 95 32 -2 35 -5 32 -29z m5408 -13 c0 -19 -6
-22 -42 -23 -29 -1 -38 1 -29 7 8 5 21 7 29 3 11 -4 13 -2 7 9 -7 11 -6 12 6
2 12 -10 15 -8 16 7 1 10 -4 18 -10 16 -7 -1 -9 -1 -4 1 4 3 4 10 0 16 -4 7 1
6 10 -2 9 -7 17 -23 17 -36z m-2510 -14 c-35 -67 -52 -293 -29 -403 27 -130
117 -258 204 -289 l33 -12 -81 -91 c-127 -143 -179 -236 -225 -396 l-18 -64
-41 94 -42 95 -303 5 -303 5 -106 48 c-150 68 -609 322 -609 337 0 3 242 5
538 5 l539 0 -41 -37 c-23 -21 -76 -63 -118 -95 -42 -32 -75 -59 -74 -61 2 -1
23 2 47 7 24 5 88 13 142 17 94 6 97 8 97 31 0 42 41 214 72 302 60 173 173
374 266 474 46 48 71 62 52 28z m-2255 -20 c17 -10 31 -27 32 -39 1 -12 -1
-22 -3 -22 -21 0 -94 56 -94 72 0 14 34 9 65 -11z m-2477 -11 c27 -26 28 -34
2 -20 -11 6 -20 16 -20 22 0 6 -3 8 -7 5 -3 -4 2 -16 12 -27 10 -11 15 -23 12
-27 -4 -3 -7 -1 -7 5 0 7 -6 11 -12 10 -8 -2 -14 9 -16 25 -4 32 6 34 36 7z
m135 -82 l6 -38 -35 5 c-45 5 -60 15 -43 26 8 5 16 3 21 -4 4 -7 16 -13 27
-13 11 -1 18 3 15 8 -3 5 -12 7 -20 4 -8 -3 -14 -1 -14 3 0 5 6 11 13 14 9 3
8 8 -3 22 -9 11 -10 16 -2 11 8 -5 12 -1 12 11 1 29 16 -5 23 -49z m6777 49
c0 -14 -49 -42 -57 -33 -3 2 -2 14 2 25 7 24 55 30 55 8z m-6875 -7 c-3 -5
-12 -10 -18 -10 -7 0 -6 4 3 10 19 12 23 12 15 0z m38 -27 c-18 -2 -33 -9 -33
-14 0 -5 -11 -7 -24 -3 -14 3 -33 1 -43 -5 -16 -10 -14 -11 8 -7 21 3 26 0 25
-12 -2 -9 -8 -17 -15 -18 -6 -1 -7 0 -1 3 5 2 7 9 4 15 -4 7 -14 1 -25 -13
-16 -22 -18 -22 -25 -6 -15 39 35 63 131 64 29 0 29 0 -2 -4z m6147 -23 c-5
-10 -10 -27 -10 -37 -1 -10 -7 -31 -15 -48 -14 -29 -15 -28 -9 25 4 31 12 59
20 63 8 5 11 13 8 19 -4 7 -2 8 4 4 9 -5 9 -13 2 -26z m900 15 c-14 -8 -21
-14 -16 -15 5 0 5 -6 0 -13 -5 -7 -2 -5 8 5 9 10 22 18 30 18 10 0 9 -3 -2
-10 -13 -9 -13 -11 0 -20 13 -10 13 -10 -1 -8 -16 3 -99 -33 -99 -43 0 -3 34
-12 75 -18 41 -7 75 -14 75 -16 0 -2 -42 -3 -92 -3 -51 1 -123 0 -159 -2 -81
-4 -96 3 -74 36 9 15 13 33 9 49 -9 35 21 33 38 -2 11 -24 20 -28 62 -31 32
-2 46 0 41 7 -3 6 2 11 13 11 11 0 33 15 49 33 15 18 37 34 48 34 17 2 16 0
-5 -12z m-6314 -90 c-20 -64 -36 -192 -36 -289 0 -61 -3 -72 -29 -101 l-29
-33 -12 46 c-16 66 -14 247 4 298 20 57 43 102 74 143 25 34 26 34 36 12 7
-16 5 -37 -8 -76z m5459 15 c6 -52 5 -54 -9 -30 -8 14 -15 43 -16 65 0 56 17
32 25 -35z m-3928 28 c13 -12 23 -32 23 -44 0 -47 17 -71 57 -81 l38 -10 -29
-12 c-66 -27 -136 22 -136 95 0 43 7 74 18 74 3 0 16 -10 29 -22z m4880 -4
c-3 -3 -12 -4 -19 -1 -8 3 -5 6 6 6 11 1 17 -2 13 -5z m-7130 -57 c45 1 50
-11 8 -21 -15 -4 -37 0 -55 9 -32 16 -43 33 -12 19 9 -5 36 -8 59 -7z m6053
-172 c0 -6 -13 -24 -28 -41 -16 -16 -32 -37 -35 -47 -5 -13 -13 -16 -27 -12
-14 4 -20 2 -20 -8 0 -7 -7 -14 -15 -14 -8 0 -15 2 -15 5 0 8 45 41 56 42 7 0
15 21 20 48 4 26 8 52 9 57 1 6 3 14 3 19 3 13 52 -34 52 -49z m-80 -136 c0
-5 -4 -9 -10 -9 -5 0 -10 7 -10 16 0 8 5 12 10 9 6 -3 10 -10 10 -16z m-17
-33 c3 3 3 -4 0 -15 -5 -20 -6 -20 -19 -4 -17 23 -18 39 -1 24 8 -6 16 -8 20
-5z m-4527 -7 c286 -40 912 -270 1714 -632 604 -272 975 -401 1399 -486 345
-70 689 -65 1026 14 205 48 331 108 404 192 85 96 78 210 -19 316 -49 54 -156
117 -196 117 -11 -1 4 -12 32 -25 47 -23 102 -70 93 -79 -2 -3 -49 8 -104 23
-295 83 -618 23 -695 -130 -63 -123 33 -238 200 -239 37 -1 42 -2 26 -11 -11
-7 -54 -10 -110 -7 -71 3 -103 10 -147 30 -168 77 -241 254 -164 397 77 141
259 221 499 221 209 -1 359 -42 508 -140 138 -90 199 -184 206 -316 4 -71 1
-86 -21 -130 -36 -70 -136 -160 -239 -214 -48 -25 -85 -46 -83 -48 3 -4 147
46 248 87 43 17 82 31 87 31 24 0 6 -19 -39 -40 -55 -25 -197 -116 -166 -105
11 4 48 18 83 31 34 13 77 24 95 24 21 -1 -18 -16 -108 -45 -77 -24 -156 -51
-175 -60 -34 -16 -34 -16 -5 -11 17 3 80 12 140 21 61 8 126 17 145 21 57 11
30 -3 -40 -21 -85 -22 -278 -97 -263 -102 7 -3 68 9 137 26 113 28 198 40 183
25 -3 -3 -50 -21 -104 -39 -105 -36 -244 -97 -203 -90 14 3 77 16 140 30 143
33 201 41 180 26 -8 -6 -23 -11 -34 -11 -10 0 -62 -19 -115 -41 -53 -23 -121
-50 -151 -60 l-55 -19 60 5 c33 2 94 16 135 30 84 29 180 43 180 28 0 -6 -19
-13 -42 -16 -24 -3 -74 -20 -113 -38 -38 -18 -101 -43 -140 -55 l-70 -24 65 6
c36 4 101 17 144 30 80 24 166 32 166 15 0 -12 -37 -21 -91 -21 -39 0 -50 -4
-63 -25 -16 -24 -102 -55 -226 -83 -44 -9 -44 -10 -10 -11 48 -1 212 35 251
55 22 11 47 15 77 11 81 -9 97 -60 20 -64 -23 -2 -94 -17 -157 -34 -343 -92
-570 -131 -846 -144 -441 -21 -1007 120 -1705 425 -91 40 -262 114 -380 165
-118 51 -321 139 -450 195 -516 223 -871 341 -1165 385 -246 37 -493 2 -615
-86 -51 -37 -85 -106 -76 -153 13 -71 101 -136 231 -172 40 -11 131 -19 275
-25 118 -4 227 -11 243 -15 23 -5 27 -3 24 12 -1 11 -6 25 -11 32 -16 26 3 23
79 -15 85 -42 184 -119 229 -178 l30 -38 -55 40 c-124 93 -168 104 -474 113
-325 10 -447 35 -551 115 -42 32 -84 117 -84 170 0 123 133 239 340 296 l65
19 -60 -6 c-84 -8 -206 -50 -276 -95 -66 -43 -75 -38 -28 16 40 46 150 111
248 147 73 27 74 28 28 23 -68 -9 -162 -41 -235 -81 -54 -29 -61 -31 -52 -13
19 35 169 122 275 160 28 10 44 18 36 18 -32 2 -150 -33 -218 -65 -40 -18 -73
-29 -73 -24 0 22 109 87 240 142 l65 28 -45 -6 c-59 -8 -185 -57 -233 -90 -36
-24 -38 -24 -27 -4 12 22 114 101 165 127 16 9 59 26 95 39 62 23 63 24 20 18
-74 -10 -161 -41 -224 -79 -75 -45 -89 -44 -43 3 49 50 130 98 235 139 64 25
76 32 47 28 -75 -11 -196 -57 -253 -95 -53 -36 -57 -38 -60 -18 -5 30 71 104
143 138 65 31 150 57 223 70 71 12 321 11 408 -1z m5704 -40 c0 8 2 12 5 9 3
-3 2 -13 -1 -23 -6 -15 -8 -15 -20 6 -7 13 -13 29 -13 34 0 6 6 -1 14 -15 8
-14 14 -19 15 -11z m-25 -51 c-2 -52 -15 -87 -30 -82 -7 3 -16 0 -20 -6 -3 -6
-3 -10 2 -9 4 1 11 1 15 0 10 -2 -12 -61 -24 -61 -5 0 -6 5 -2 12 5 7 3 8 -5
3 -9 -5 -10 -10 -2 -18 14 -14 14 -30 1 -22 -6 3 -7 -1 -4 -9 3 -9 1 -16 -6
-16 -6 0 -8 -4 -5 -10 3 -5 1 -10 -5 -10 -6 0 -9 -4 -6 -9 3 -5 -1 -26 -10
-47 -15 -35 -18 -37 -25 -19 -6 14 -7 11 -3 -13 4 -24 2 -34 -10 -38 -9 -3
-14 -10 -11 -14 3 -5 2 -15 -1 -24 -5 -13 -9 -14 -20 -5 -19 16 -18 25 9 50
12 12 16 19 10 15 -7 -4 -13 -4 -13 -1 0 12 23 50 39 63 10 9 11 11 2 6 -10
-5 -13 -3 -8 7 3 8 27 66 53 129 25 63 52 120 59 125 6 6 10 21 8 35 -2 15 0
20 5 13 4 -7 7 -27 7 -45z m-172 -433 c-3 -9 -8 -14 -10 -11 -3 3 -2 9 2 15 9
16 15 13 8 -4z m-413 -25 c37 -26 65 -98 57 -147 -9 -50 -34 -83 -88 -110 -70
-36 -138 -26 -98 14 6 6 8 19 5 29 -8 24 -71 68 -107 74 l-29 5 33 65 c39 80
77 104 150 96 26 -3 61 -14 77 -26z m386 11 c-4 -5 -2 -11 4 -13 6 -2 6 -8 0
-18 -8 -13 -10 -12 -10 3 0 10 -4 15 -10 12 -6 -3 -7 1 -4 9 3 9 10 16 16 16
5 0 7 -4 4 -9z m-23 -50 c-20 -12 -32 -48 -22 -58 8 -8 7 -13 -2 -18 -7 -5
-10 -4 -5 3 3 5 1 12 -5 14 -7 2 -5 16 7 40 9 21 22 35 27 31 6 -3 6 -8 0 -12z
m-43 -81 c0 -5 -5 -10 -11 -10 -5 0 -7 5 -4 10 3 6 8 10 11 10 2 0 4 -4 4 -10z
m-16 -35 c3 -8 1 -15 -4 -15 -6 0 -10 7 -10 15 0 8 2 15 4 15 2 0 6 -7 10 -15z
m-6334 -35 c0 -17 -5 -30 -12 -30 -7 0 -27 -14 -45 -32 -18 -17 -36 -28 -40
-24 -4 4 -1 11 7 16 13 9 13 10 0 10 -11 1 -8 6 9 20 12 11 28 17 35 13 6 -3
8 -2 3 2 -6 7 29 55 40 55 2 0 3 -13 3 -30z m5843 -12 c9 -13 0 -27 -42 -75
-30 -32 -58 -59 -62 -61 -5 -2 -9 15 -9 37 0 33 7 48 38 80 39 41 58 46 75 19z
m465 -63 c42 -47 71 -153 40 -142 -7 2 -12 17 -11 32 1 15 -1 25 -4 21 -3 -3
-11 1 -17 10 -6 8 -23 16 -36 17 -14 1 -35 8 -46 14 -12 7 -24 9 -28 6 -3 -3
-6 -1 -6 5 0 7 11 9 29 6 26 -5 29 -3 33 25 2 17 0 33 -6 35 -6 2 -4 5 5 5 10
1 31 -15 47 -34z m-6409 -27 c1 -4 -10 -2 -24 4 -23 10 -23 12 -7 24 14 10 18
10 24 -4 4 -9 7 -20 7 -24z m6276 11 c0 -8 5 -17 10 -21 6 -4 2 -8 -9 -8 -13
0 -16 5 -12 17 4 9 1 20 -6 25 -10 7 -9 9 2 5 8 -2 15 -10 15 -18z m117 -63
c6 4 5 -2 -1 -15 -14 -25 -23 -28 -14 -3 6 15 5 15 -10 3 -19 -15 -23 -1 -5
17 8 8 14 9 16 2 2 -5 8 -7 14 -4z m-682 -76 c-33 -26 -49 -26 -19 0 13 10 29
19 34 19 6 1 -1 -8 -15 -19z m-5540 -47 c0 13 13 3 40 -32 22 -28 40 -53 40
-56 0 -13 -23 -3 -48 22 -15 15 -18 20 -8 12 17 -12 19 -12 14 1 -2 8 -16 21
-30 27 -14 7 -33 25 -42 40 -16 27 -16 27 8 -2 21 -24 26 -26 26 -12z m460 7
c20 -6 21 -8 5 -8 -11 0 -29 3 -40 8 -25 11 1 11 35 0z m1085 -110 c28 -48 27
-140 -1 -197 -12 -23 -17 -40 -11 -36 5 3 18 26 30 52 26 59 27 143 2 191 -30
57 7 19 40 -42 25 -45 29 -65 30 -128 0 -68 -3 -79 -32 -121 -35 -51 -106
-103 -163 -120 -31 -10 -42 -8 -76 10 -71 37 -70 35 -21 80 56 52 77 95 77
159 0 65 -13 97 -53 135 l-32 30 35 -7 c19 -3 47 -19 63 -34 l29 -27 -16 32
c-8 17 -32 42 -53 55 l-38 23 55 5 c67 7 105 -10 135 -60z m4582 44 c-3 -3
-12 -4 -19 -1 -8 3 -5 6 6 6 11 1 17 -2 13 -5z m-33 -41 c4 -10 4 -14 0 -10
-4 4 -14 1 -22 -6 -13 -11 -14 -9 -1 11 17 26 15 26 23 5z m-5761 -60 c-7 -3
-13 -9 -13 -13 0 -5 -11 -26 -25 -46 -23 -35 -25 -35 -25 -12 0 14 5 39 10 55
9 26 15 29 38 25 15 -3 21 -7 15 -9z m75 -9 c19 -5 22 -13 22 -53 0 -61 18
-159 36 -191 l13 -25 1 27 c0 15 5 30 10 33 9 5 14 -16 13 -52 -1 -7 3 -11 7
-8 5 3 11 -1 13 -7 4 -10 8 -9 16 2 9 13 11 12 12 -5 1 -11 2 -26 2 -33 -1 -7
1 -11 4 -8 3 3 22 -22 42 -56 50 -85 162 -197 238 -236 33 -18 105 -48 160
-68 54 -19 144 -55 200 -80 57 -24 138 -56 181 -70 48 -16 79 -31 79 -40 0 -8
-6 -14 -12 -14 -28 0 -120 34 -220 80 -59 28 -171 69 -249 92 -241 70 -364
132 -447 226 -44 51 -122 177 -141 230 -7 17 -16 32 -20 32 -7 0 -13 -50 -9
-73 1 -5 -4 -5 -10 -2 -6 4 -9 16 -6 26 3 11 2 17 -3 14 -10 -6 -20 46 -20
109 0 44 9 95 25 144 5 13 27 15 63 6z m245 -34 c15 0 27 -5 27 -11 0 -12 29
-38 43 -39 4 0 7 7 7 15 0 10 11 4 31 -17 28 -31 30 -31 23 -9 -6 23 -3 22 37
-12 24 -21 66 -49 94 -62 l50 -25 -45 6 c-25 4 -54 11 -65 17 -18 9 -18 8 -6
-6 7 -9 29 -19 50 -22 20 -3 45 -11 56 -17 75 -43 181 -90 240 -106 39 -11 95
-34 126 -51 76 -42 194 -71 293 -72 l81 -1 -45 -15 c-31 -10 -68 -12 -120 -9
-41 3 -181 10 -310 15 -350 13 -463 44 -581 162 -53 53 -79 113 -86 201 l-6
71 39 -6 c21 -4 51 -7 67 -7z m-113 -211 c0 -15 -18 -19 -23 -6 -3 8 1 14 9
14 8 0 14 -4 14 -8z m1630 -49 c-12 -16 -20 -30 -18 -30 2 0 30 9 62 21 73 25
162 38 152 21 -4 -7 -18 -12 -32 -12 -49 0 -13 -18 59 -30 89 -14 187 -45 247
-78 56 -31 142 -103 171 -143 l21 -30 -44 7 c-23 3 -92 26 -153 51 -198 82
-298 115 -319 105 -17 -7 -14 -12 25 -42 24 -18 49 -38 54 -44 6 -7 23 -21 39
-34 l29 -22 -47 0 c-29 0 -45 4 -41 10 3 6 -2 10 -12 10 -15 0 -16 2 -3 10 12
8 11 10 -5 8 -11 -1 -50 13 -86 30 -74 36 -124 48 -164 38 -18 -5 -25 -12 -21
-22 3 -8 0 -16 -7 -18 -37 -9 -128 -41 -166 -58 l-44 -20 46 -26 c26 -14 46
-26 44 -27 -1 -1 -58 2 -127 6 -121 6 -150 3 -225 -26 -35 -14 23 42 90 88 33
22 108 89 166 149 58 59 111 108 118 108 8 0 11 -11 9 -27 -3 -33 7 -33 60 1
33 20 113 53 135 55 5 1 -1 -12 -13 -29z m920 -490 c38 -38 19 -79 -37 -83
-25 -2 -28 1 -25 28 1 17 3 40 3 53 1 28 32 29 59 2z m-255 -39 c0 -19 6 -36
13 -38 6 -3 12 -9 12 -14 0 -16 -23 -10 -48 14 l-24 22 7 -27 c4 -17 3 -28 -3
-28 -9 0 -32 72 -32 100 0 7 15 10 38 8 35 -3 37 -5 37 -37z m376 20 l24 -19
-23 -25 c-14 -15 -20 -30 -16 -40 3 -10 1 -17 -5 -17 -7 0 -14 6 -17 14 -3 8
-12 12 -20 9 -8 -3 -14 -1 -14 3 0 17 33 94 40 94 4 0 18 -9 31 -19z m-511
-31 c45 -45 9 -105 -47 -78 -14 7 -31 21 -37 31 -9 15 -6 23 17 43 34 29 41
30 67 4z m652 -26 c5 -4 -30 -65 -46 -81 -8 -8 -66 21 -63 31 9 29 92 67 109
50z m-1832 -14 c0 -12 -8 -12 -35 0 -18 8 -17 9 8 9 15 1 27 -3 27 -9z m1060
-36 c0 13 30 -15 30 -29 0 -15 -33 -30 -38 -17 -1 5 -9 18 -17 28 -13 18 -14
16 -12 -16 1 -19 -2 -37 -8 -40 -11 -6 -20 83 -10 108 5 13 10 11 30 -13 13
-17 24 -26 25 -21z m890 -23 c-1 -18 -20 -33 -35 -27 -30 11 -39 -6 -14 -25
l24 -19 -26 0 c-14 0 -33 8 -43 18 -15 18 -14 21 16 54 31 33 34 34 56 20 12
-8 22 -17 22 -21z m-1810 19 c0 -5 -5 -10 -11 -10 -5 0 -7 5 -4 10 3 6 8 10
11 10 2 0 4 -4 4 -10z m145 -30 c-3 -5 -11 -10 -16 -10 -6 0 -7 5 -4 10 3 6
11 10 16 10 6 0 7 -4 4 -10z m653 -9 c3 -9 -1 -11 -16 -7 -11 4 -23 2 -27 -4
-6 -10 7 -14 32 -11 21 3 54 -19 47 -30 -4 -7 -10 -7 -17 0 -6 6 -17 11 -24
11 -19 0 -16 -28 5 -33 16 -4 16 -4 0 -12 -13 -5 -26 2 -48 25 -36 38 -37 44
-7 65 25 18 48 16 55 -4z m-613 -1 c3 -6 -1 -7 -9 -4 -18 7 -21 14 -7 14 6 0
13 -4 16 -10z m62 -6 c-3 -3 -12 -4 -19 -1 -8 3 -5 6 6 6 11 1 17 -2 13 -5z
m-1002 -22 c-3 -3 -11 0 -18 7 -9 10 -8 11 6 5 10 -3 15 -9 12 -12z m4122 2
c-3 -3 -12 -4 -19 -1 -8 3 -5 6 6 6 11 1 17 -2 13 -5z m-1457 -43 c0 -10 7
-24 15 -31 17 -14 20 -40 5 -40 -5 0 -10 8 -10 18 0 29 -9 31 -52 12 -40 -18
-68 -17 -68 1 0 5 11 9 24 9 31 0 42 16 19 25 -16 5 -15 8 7 25 28 21 60 11
60 -19z m-1193 -34 l22 -19 -27 -34 c-28 -35 -52 -44 -52 -21 0 8 -11 24 -25
37 l-25 24 27 22 c30 24 46 22 80 -9z m1192 -36 c20 -17 21 -51 1 -51 -15 0
-42 40 -37 55 8 19 9 19 36 -4z m-346 -141 c221 -126 216 -121 171 -206 -14
-27 -44 -84 -66 -127 l-40 -78 76 -127 76 -127 -148 -5 -147 -5 -79 -153
c-103 -201 -98 -201 -210 3 l-81 150 -153 3 c-83 1 -152 5 -152 8 0 4 16 32
35 64 19 32 35 62 35 68 0 5 7 15 15 22 8 7 13 16 10 20 -3 5 -1 10 4 12 5 1
17 18 28 36 l20 33 -39 74 c-24 46 -44 73 -50 69 -7 -5 -9 -1 -5 9 3 9 2 19
-2 22 -10 6 -6 -68 4 -85 3 -5 3 -16 -2 -22 -4 -7 -9 -24 -11 -38 -2 -13 -7
-27 -11 -30 -18 -11 -16 -46 4 -62 11 -10 15 -17 8 -18 -7 0 -13 6 -14 13 0 6
-5 1 -10 -12 -7 -17 -6 -28 2 -35 9 -8 10 -7 6 7 -4 9 -2 17 4 17 6 0 9 -7 7
-16 -2 -8 -7 -14 -13 -14 -5 1 -13 -7 -17 -17 -9 -19 -2 256 9 370 l6 68 101
57 c56 31 162 89 236 128 l135 71 30 -17 c16 -10 119 -68 228 -130z m-952 -23
c-37 -9 -39 -20 -9 -41 l22 -16 -22 -43 c-40 -81 -55 -162 -50 -282 6 -122 22
-178 84 -279 34 -57 35 -61 17 -73 -27 -20 -64 -27 -82 -16 -29 19 -80 117
-96 185 -19 84 -19 251 0 340 11 53 53 198 80 275 3 9 17 4 45 -15 l42 -27
-31 -8z m1439 47 c0 -9 16 -68 35 -132 49 -159 68 -300 55 -394 -18 -128 -42
-189 -99 -250 -29 -32 -59 -36 -91 -10 l-23 18 28 43 c38 60 70 153 85 240 20
122 -4 285 -52 346 -21 27 -21 28 -3 41 10 8 23 14 28 14 4 0 7 8 5 18 -2 11
-15 19 -38 22 l-35 5 45 27 c54 31 60 33 60 12z m-2622 -250 c23 -27 29 -73
12 -104 -10 -19 -64 -43 -74 -33 -14 15 -4 44 18 53 32 12 39 25 26 50 -21 40
-80 19 -101 -37 -16 -43 -10 -65 27 -100 36 -33 36 -34 18 -55 -11 -12 -14
-18 -8 -15 7 4 14 -2 18 -16 3 -12 19 -36 36 -52 56 -54 200 -44 200 15 0 36
15 28 17 -10 3 -50 -22 -72 -90 -78 -95 -8 -197 62 -197 134 0 19 -5 34 -11
34 -8 0 -8 4 0 14 8 10 9 16 1 21 -6 4 -9 1 -8 -6 2 -6 -3 -14 -10 -16 -7 -3
-19 11 -28 33 -19 45 -14 122 10 156 38 53 103 59 144 12z m482 -19 c-19 -40
-21 -50 -10 -76 15 -35 57 -70 118 -97 l43 -19 -58 -6 c-65 -7 -83 -23 -83
-74 0 -18 -4 -33 -9 -33 -11 0 -75 71 -92 101 -36 68 -29 144 18 200 24 29 83
63 92 54 2 -2 -7 -25 -19 -50z m2806 24 c70 -43 95 -137 57 -217 -18 -37 -86
-112 -102 -112 -5 0 -7 17 -4 38 7 49 -9 62 -82 69 l-56 6 58 28 c103 50 126
90 89 162 -27 54 -16 61 40 26z m-2355 -244 c8 -117 22 -170 75 -283 106 -227
266 -394 469 -488 93 -43 211 -74 281 -74 82 0 84 -2 84 -79 0 -37 -3 -71 -6
-74 -4 -3 -32 14 -63 38 -37 29 -89 56 -151 78 -305 110 -492 269 -643 547
-50 92 -86 208 -92 303 -4 45 -8 92 -11 105 -4 21 -1 23 23 20 28 -3 28 -4 34
-93z m1925 18 c-9 -106 -22 -164 -57 -254 -84 -215 -249 -417 -434 -530 -77
-47 -252 -123 -314 -135 -17 -4 -53 -26 -81 -50 -29 -24 -56 -44 -61 -44 -6 0
-9 31 -7 73 l3 72 85 6 c210 16 443 141 577 310 156 197 237 387 236 557 l0
72 30 0 29 0 -6 -77z m-1422 -6 c7 -6 6 -7 -4 -4 -8 2 -16 12 -17 23 -2 13 -1
15 4 4 3 -8 11 -19 17 -23z m62 11 c4 -7 3 -8 -4 -4 -7 4 -12 2 -12 -5 0 -7
-3 -10 -6 -6 -6 5 3 27 11 27 2 0 7 -5 11 -12z m-55 -71 c-10 -9 -11 -8 -5 6
3 10 9 15 12 12 3 -3 0 -11 -7 -18z m-6 -37 c-3 -5 -12 -10 -18 -10 -7 0 -6 4
3 10 19 12 23 12 15 0z m-22 -37 c-3 -7 -9 -10 -14 -7 -14 8 -11 21 5 21 8 0
12 -6 9 -14z m-108 -279 c20 -31 14 -50 -19 -65 -19 -9 -32 -9 -56 1 -16 7
-30 16 -30 20 0 10 68 70 79 70 5 0 16 -12 26 -26z m1192 -10 c34 -26 36 -49
2 -39 -20 7 -26 -9 -8 -21 8 -4 8 -9 0 -17 -8 -8 -21 -1 -48 25 -36 36 -37 38
-18 58 23 26 31 25 72 -6z m-1965 -21 c33 -30 17 -83 -26 -83 -24 0 -56 28
-56 48 0 21 29 52 48 52 9 0 24 -7 34 -17z m1841 -55 c-17 -19 -17 -20 1 -34
15 -10 23 -11 33 -2 17 13 28 4 17 -14 -5 -7 -9 -17 -9 -23 -1 -15 -27 -7 -51
16 -11 10 -26 19 -32 19 -18 0 -14 11 15 42 29 31 55 27 26 -4z m-1041 -28
c-9 -22 -20 -40 -24 -40 -13 0 -9 35 8 58 25 36 34 25 16 -18z m72 -1 c-3 -6
-1 -14 5 -18 17 -11 -46 -54 -67 -46 -15 6 -15 8 4 23 12 9 24 25 27 35 4 9
14 17 22 17 9 0 13 -5 9 -11z m61 -59 c-22 -24 -9 -27 17 -3 10 9 21 14 24 10
3 -3 -5 -15 -18 -27 -12 -11 -30 -27 -39 -35 -18 -17 -35 -19 -44 -5 -9 15 57
102 69 90 6 -6 3 -16 -9 -30z m835 9 c0 -5 -8 -9 -17 -7 -11 2 -18 -3 -18 -12
0 -10 8 -14 25 -12 46 5 56 -6 30 -33 -28 -30 -44 -32 -35 -5 4 14 2 20 -8 20
-8 0 -21 7 -28 16 -11 14 -10 19 10 35 23 19 41 18 41 -2z m-716 -35 c9 -3 16
-15 16 -25 0 -15 -5 -18 -22 -14 -17 4 -27 0 -36 -15 -12 -20 -11 -21 7 -15
22 7 29 -9 10 -20 -14 -9 -59 3 -59 16 0 12 52 79 62 79 3 0 13 -3 22 -6z
m607 -45 c16 -17 33 -28 39 -24 5 3 10 2 10 -4 0 -23 -23 -21 -49 3 -34 33
-56 34 -47 4 3 -13 6 -26 6 -30 0 -3 8 -8 18 -11 16 -4 16 -4 -1 -12 -28 -12
-48 12 -43 54 3 20 5 39 5 44 2 17 35 5 62 -24z m-479 -16 c22 -20 23 -41 1
-65 -20 -22 -42 -23 -71 -2 -26 18 -28 46 -6 68 20 21 53 20 76 -1z m365 -9
c3 -8 1 -20 -6 -27 -6 -6 -11 -19 -11 -29 0 -30 -17 -20 -24 13 -3 17 -6 38
-6 45 0 19 39 18 47 -2z m-257 -22 l25 -28 12 26 c11 23 11 22 12 -22 1 -27
-2 -48 -5 -48 -3 0 -18 14 -34 32 l-30 32 -6 -32 c-4 -18 -11 -32 -16 -32 -6
0 -7 7 -4 16 3 9 6 31 6 50 0 41 7 42 40 6z m180 -10 c7 2 13 -9 15 -24 4 -33
-2 -35 -31 -7 l-21 20 5 -28 c3 -19 1 -25 -5 -18 -13 13 -24 70 -16 79 4 3 14
-1 23 -9 10 -9 23 -15 30 -13z m115 -22 c-3 -5 -11 -10 -16 -10 -6 0 -7 5 -4
10 3 6 11 10 16 10 6 0 7 -4 4 -10z m-235 -375 c0 -8 -4 -15 -10 -15 -5 0 -10
7 -10 15 0 8 5 15 10 15 6 0 10 -7 10 -15z"/>
<path d="M4076 8878 c3 -5 10 -6 15 -3 13 9 11 12 -6 12 -8 0 -12 -4 -9 -9z"/>
<path d="M4089 8854 c-23 -25 -23 -26 -2 -13 13 7 25 19 27 26 8 19 2 16 -25
-13z"/>
<path d="M4056 8853 c-6 -14 -5 -15 5 -6 7 7 10 15 7 18 -3 3 -9 -2 -12 -12z"/>
<path d="M6525 8870 c-3 -5 -1 -10 4 -10 6 0 11 5 11 10 0 6 -2 10 -4 10 -3 0
-8 -4 -11 -10z"/>
<path d="M5250 8425 c19 -22 39 -44 43 -50 4 -5 4 1 -1 14 -5 14 -24 36 -43
50 l-34 25 35 -39z"/>
<path d="M5586 8377 c3 -10 9 -15 12 -12 3 3 0 11 -7 18 -10 9 -11 8 -5 -6z"/>
<path d="M5640 8301 c8 -5 26 -12 40 -16 20 -6 23 -5 13 5 -7 7 -25 15 -40 16
-19 2 -23 0 -13 -5z"/>
<path d="M5899 7964 c6 -3 7 -12 4 -20 -3 -8 -1 -14 5 -14 14 0 8 33 -7 36 -6
1 -7 0 -2 -2z"/>
<path d="M6063 7935 c0 -8 4 -12 9 -9 5 3 6 10 3 15 -9 13 -12 11 -12 -6z"/>
<path d="M5941 7931 c-10 -7 -7 -9 12 -8 14 1 23 5 20 10 -6 9 -15 9 -32 -2z"/>
<path d="M5980 7890 c-21 -7 -18 -8 20 -10 39 -1 101 -17 76 -19 -14 -1 14
-30 45 -45 16 -8 29 -10 29 -5 0 5 -5 9 -11 9 -5 0 -7 5 -3 12 5 7 2 9 -8 5
-9 -3 -24 1 -35 9 -17 14 -16 15 7 8 l25 -6 -24 26 c-26 27 -68 33 -121 16z"/>
<path d="M5960 7866 c0 -2 9 -6 20 -9 11 -3 18 -1 14 4 -5 9 -34 13 -34 5z"/>
<path d="M6293 7863 c4 -3 2 -12 -4 -19 -8 -10 -6 -11 15 -1 16 8 21 14 13 19
-15 9 -33 10 -24 1z"/>
<path d="M6210 7839 c0 -25 34 -63 51 -56 10 4 8 8 -8 12 -13 4 -21 11 -18 15
2 4 -2 16 -10 26 -12 16 -14 17 -15 3z"/>
<path d="M5150 8416 c0 -2 7 -6 15 -10 8 -3 15 -1 15 4 0 6 -7 10 -15 10 -8 0
-15 -2 -15 -4z"/>
<path d="M8153 7324 c7 -43 15 -53 27 -34 5 8 3 24 -6 42 -20 38 -28 35 -21
-8z"/>
<path d="M8536 6585 c-3 -8 -1 -15 4 -15 6 0 10 7 10 15 0 8 -2 15 -4 15 -2 0
-6 -7 -10 -15z"/>
<path d="M5150 8030 c-10 -7 17 -10 85 -10 68 0 95 3 85 10 -8 5 -46 10 -85
10 -38 0 -77 -5 -85 -10z"/>
<path d="M5680 8030 c-9 -6 -10 -10 -3 -10 6 0 15 5 18 10 8 12 4 12 -15 0z"/>
<path d="M5450 7972 c0 -7 -7 -12 -16 -12 -8 0 -12 -5 -8 -11 4 -7 11 -6 22 5
9 8 13 19 9 22 -4 4 -7 2 -7 -4z"/>
<path d="M5353 7725 c0 -8 4 -12 9 -9 5 3 6 10 3 15 -9 13 -12 11 -12 -6z"/>
<path d="M5390 7710 c0 -6 7 -10 15 -10 8 0 15 2 15 4 0 2 -7 6 -15 10 -8 3
-15 1 -15 -4z"/>
<path d="M5557 7665 c3 -8 9 -12 14 -9 12 7 11 11 -5 17 -10 4 -13 1 -9 -8z"/>
<path d="M5569 7860 c0 -3 -2 -15 -5 -28 -4 -22 -3 -22 12 -7 13 12 14 19 5
28 -6 6 -11 9 -12 7z"/>
<path d="M7839 7487 c6 -8 7 -18 3 -22 -4 -5 -1 -5 6 -1 10 6 10 11 1 22 -6 8
-14 14 -16 14 -3 0 0 -6 6 -13z"/>
<path d="M7975 6899 c-4 -6 -5 -12 -2 -15 2 -3 7 2 10 11 7 17 1 20 -8 4z"/>
<path d="M7996 6894 c-9 -23 6 -36 21 -19 10 10 9 16 -1 24 -10 9 -15 7 -20
-5z"/>
<path d="M8045 6880 c-3 -5 -2 -10 4 -10 5 0 13 5 16 10 3 6 2 10 -4 10 -5 0
-13 -4 -16 -10z"/>
<path d="M7968 6853 c7 -3 16 -2 19 1 4 3 -2 6 -13 5 -11 0 -14 -3 -6 -6z"/>
<path d="M8065 6850 c3 -5 8 -10 11 -10 2 0 4 5 4 10 0 6 -5 10 -11 10 -5 0
-7 -4 -4 -10z"/>
<path d="M8010 6840 c0 -5 4 -10 9 -10 6 0 13 5 16 10 3 6 -1 10 -9 10 -9 0
-16 -4 -16 -10z"/>
<path d="M8356 7587 c3 -10 9 -15 12 -12 3 3 0 11 -7 18 -10 9 -11 8 -5 -6z"/>
<path d="M2106 6893 c-6 -14 -5 -15 5 -6 7 7 10 15 7 18 -3 3 -9 -2 -12 -12z"/>
<path d="M2485 6750 c-3 -6 1 -7 9 -4 18 7 21 14 7 14 -6 0 -13 -4 -16 -10z"/>
<path d="M7390 6940 c0 -5 5 -10 10 -10 6 0 10 5 10 10 0 6 -4 10 -10 10 -5 0
-10 -4 -10 -10z"/>
<path d="M7371 6834 c0 -11 3 -14 6 -6 3 7 2 16 -1 19 -3 4 -6 -2 -5 -13z"/>
<path d="M6843 6268 c-46 -57 -68 -150 -77 -318 -4 -75 -2 -92 7 -79 7 9 27
37 44 63 18 25 37 46 43 46 6 0 16 -12 23 -27 11 -26 12 -21 15 50 2 42 -2 85
-7 95 -6 9 -11 11 -11 5 0 -7 -9 -13 -20 -13 -24 0 -25 12 -9 111 11 73 9 89
-8 67z"/>
<path d="M7017 6053 c-20 -36 -69 -223 -58 -223 17 0 61 110 67 168 6 56 3 75
-9 55z"/>
<path d="M6841 5631 c-35 -103 -43 -143 -44 -204 -2 -84 16 -124 27 -64 9 48
25 60 58 43 15 -8 29 -12 32 -8 18 17 -2 311 -23 349 -3 7 -26 -45 -50 -116z"/>
<path d="M2818 6823 c7 -3 16 -2 19 1 4 3 -2 6 -13 5 -11 0 -14 -3 -6 -6z"/>
<path d="M2870 6821 c0 -6 5 -11 11 -11 5 0 7 -4 4 -10 -3 -6 1 -7 10 -4 9 4
15 7 13 8 -2 1 -11 8 -20 15 -12 9 -18 10 -18 2z"/>
<path d="M2817 6804 c-4 -4 -4 -11 -1 -15 8 -14 31 -10 38 6 5 15 -24 22 -37
9z"/>
<path d="M2141 6422 c-14 -26 -14 -42 -1 -42 11 0 25 48 17 56 -3 3 -10 -3
-16 -14z"/>
<path d="M3158 5682 c-107 -71 -110 -74 -67 -66 51 9 159 87 159 114 0 13 7
17 -92 -48z"/>
<path d="M2242 5911 c-11 -7 -11 -9 0 -14 9 -3 15 1 15 9 0 8 -1 14 -1 14 -1
0 -7 -4 -14 -9z"/>
<path d="M6340 5460 c0 -5 5 -10 10 -10 6 0 10 5 10 10 0 6 -4 10 -10 10 -5 0
-10 -4 -10 -10z"/>
<path d="M3905 5481 c-3 -5 -2 -12 3 -15 5 -3 9 1 9 9 0 17 -3 19 -12 6z"/>
<path d="M1776 5124 c-20 -19 -20 -25 -2 -18 8 3 17 12 20 20 7 18 1 18 -18
-2z"/>
<path d="M7785 4720 c-3 -5 -1 -10 4 -10 6 0 11 5 11 10 0 6 -2 10 -4 10 -3 0
-8 -4 -11 -10z"/>
<path d="M2970 4371 c0 -33 3 -61 6 -61 3 0 17 9 31 20 25 20 113 29 113 12 0
-13 -217 -259 -234 -265 -41 -16 -5 -25 122 -30 75 -4 152 -9 170 -13 l32 -6
0 47 0 48 -34 -6 c-37 -6 -116 2 -116 12 0 9 147 191 192 237 l40 41 -54 7
c-29 3 -101 9 -160 12 l-108 7 0 -62z"/>
<path d="M3454 4292 c-12 -15 -60 -81 -108 -147 -82 -113 -85 -120 -64 -126
79 -21 76 -21 83 11 9 39 18 43 71 35 51 -7 78 -41 55 -69 -7 -8 -8 -16 -4
-19 7 -4 113 -37 120 -37 1 0 -1 10 -6 23 -5 12 -25 92 -46 177 -33 138 -51
182 -74 179 -3 0 -16 -12 -27 -27z m19 -152 c6 -23 3 -24 -24 -9 -16 8 -18 13
-9 25 15 17 26 11 33 -16z"/>
<path d="M3740 4198 c-1 -34 -57 -238 -71 -254 -14 -17 -6 -27 36 -42 17 -5
37 -13 46 -17 13 -5 15 -1 12 19 -6 31 53 245 75 269 18 20 18 20 -34 35 -57
16 -64 15 -64 -10z"/>
<path d="M3917 4111 c-7 -70 -52 -215 -73 -236 -9 -9 -15 -17 -13 -18 2 -1 25
-10 50 -19 l47 -16 6 46 c4 26 13 61 20 77 l13 30 54 -105 c30 -57 59 -105 64
-107 6 -2 28 54 49 124 21 71 47 138 58 149 l19 22 -47 16 c-26 9 -49 16 -50
16 -2 0 -8 -27 -15 -60 -6 -33 -15 -63 -19 -65 -10 -6 -72 118 -73 149 -2 20
-10 28 -43 39 l-42 13 -5 -55z"/>
<path d="M4366 3975 c3 -8 -4 -47 -17 -87 -30 -97 -31 -177 -3 -215 46 -62
143 -91 191 -58 14 10 33 50 53 112 18 54 39 109 47 121 8 13 13 25 11 25 -2
1 -24 9 -50 18 l-48 17 0 -27 c-1 -14 -13 -64 -28 -111 -30 -92 -44 -104 -87
-76 -20 13 -25 25 -25 61 0 47 33 150 56 174 11 12 5 18 -44 38 -68 27 -63 27
-56 8z"/>
<path d="M6796 3955 c-11 -8 -15 -15 -9 -15 6 0 16 7 23 15 16 19 11 19 -14 0z"/>
<path d="M4707 3821 c6 -23 -41 -202 -66 -254 -22 -44 -32 -34 100 -95 l86
-39 22 43 21 44 -24 -6 c-22 -5 -71 13 -102 38 -14 10 39 203 62 227 11 12 5
18 -44 38 -31 12 -58 23 -59 23 0 0 1 -8 4 -19z"/>
<path d="M5063 3502 l-111 -129 37 -13 c20 -7 41 -15 47 -17 7 -2 16 10 22 26
l11 31 43 -16 c62 -24 71 -34 64 -66 -5 -25 -1 -30 32 -44 86 -37 81 -37 70 2
-5 20 -24 106 -42 192 -24 115 -37 158 -48 160 -9 2 -59 -48 -125 -126z m95
-57 c-3 -3 -12 -3 -21 1 -14 5 -15 10 -5 27 l11 22 10 -23 c6 -12 8 -25 5 -27z"/>
<path d="M5400 3514 c0 -40 -50 -247 -65 -270 -14 -21 -11 -23 91 -59 117 -42
145 -41 169 5 19 37 19 60 -1 89 -16 22 -16 25 4 40 31 24 37 64 16 100 -19
32 -19 32 -136 85 l-78 35 0 -25z m128 -117 c29 -23 4 -51 -37 -40 -15 4 -21
13 -21 33 0 24 3 27 23 23 12 -3 28 -10 35 -16z m-25 -125 c21 -18 22 -42 3
-42 -37 0 -66 20 -66 45 0 23 3 25 23 19 12 -3 30 -13 40 -22z"/>
<path d="M5730 3401 c0 -30 -63 -276 -71 -279 -20 -8 -6 -21 38 -36 66 -22 75
-21 63 9 -11 30 44 239 71 266 16 16 14 18 -42 36 -52 17 -59 18 -59 4z"/>
<path d="M5906 3305 c-9 -85 -44 -226 -61 -246 -14 -14 -7 -18 73 -42 127 -38
165 -36 212 11 47 47 69 128 51 185 -23 68 -49 85 -207 134 l-62 19 -6 -61z
m177 -86 c32 -39 17 -115 -28 -145 -22 -14 -32 -15 -66 -5 -30 9 -39 16 -35
29 2 9 12 52 21 94 l17 77 36 -14 c21 -9 45 -25 55 -36z"/>
<path d="M6266 3238 c7 -40 -24 -258 -38 -276 -6 -7 -9 -15 -6 -17 2 -3 57
-16 121 -29 l116 -23 10 46 c11 51 8 59 -13 42 -12 -10 -27 -10 -71 -1 -46 10
-55 15 -55 33 0 47 21 55 82 32 10 -4 18 5 25 29 12 40 5 46 -53 46 -31 0 -34
3 -34 30 0 33 1 33 73 21 52 -9 52 -9 61 35 l7 30 -94 13 c-51 6 -103 14 -115
18 -19 5 -21 2 -16 -29z"/>
<path d="M7102 3243 c-46 -4 -53 -7 -47 -21 4 -9 9 -46 12 -82 l5 -65 -46 45
c-26 25 -57 60 -69 77 -19 29 -28 33 -65 33 l-43 0 8 -37 c4 -21 8 -100 8
-175 l0 -138 30 0 c17 0 40 3 52 6 19 5 20 9 12 34 -6 15 -9 56 -7 91 l3 64
64 -82 c60 -78 67 -83 101 -83 l38 0 -4 43 c-12 144 -11 234 1 265 8 17 11 31
7 30 -4 -1 -31 -3 -60 -5z"/>
<path d="M6562 3189 c11 -50 1 -244 -14 -272 -5 -10 -7 -21 -4 -24 4 -4 236
-22 242 -19 1 1 4 22 7 48 l6 47 -28 -10 c-16 -6 -49 -9 -72 -7 -43 3 -44 4
-47 41 -4 41 2 43 56 28 l32 -10 0 40 0 39 -46 0 c-44 0 -45 1 -42 28 3 26 5
27 57 24 59 -4 71 4 71 51 l0 27 -77 0 c-43 0 -95 3 -115 6 l-36 6 10 -43z"/>
<path d="M8840 4440 c0 -5 5 -10 11 -10 5 0 7 5 4 10 -3 6 -8 10 -11 10 -2 0
-4 -4 -4 -10z"/>
<path d="M8133 3963 c-7 -2 -13 -11 -13 -19 0 -12 4 -12 20 -4 32 17 26 37 -7
23z"/>
<path d="M8520 3699 c0 -5 5 -7 10 -4 6 3 10 8 10 11 0 2 -4 4 -10 4 -5 0 -10
-5 -10 -11z"/>
<path d="M2670 3345 c0 -8 4 -15 10 -15 5 0 7 7 4 15 -4 8 -8 15 -10 15 -2 0
-4 -7 -4 -15z"/>
<path d="M2715 3340 c-3 -5 -1 -10 4 -10 6 0 11 5 11 10 0 6 -2 10 -4 10 -3 0
-8 -4 -11 -10z"/>
<path d="M2937 3243 c33 -80 63 -129 100 -165 89 -86 264 -137 413 -122 l75 7
-86 12 c-213 30 -353 92 -420 186 l-21 30 29 -7 28 -6 -23 17 c-12 9 -20 21
-17 26 4 5 1 9 -4 9 -6 0 -11 7 -11 15 0 8 -9 15 -21 15 -11 0 -29 5 -39 10
-18 10 -18 9 -3 -27z"/>
<path d="M3030 3158 c0 -4 4 -8 9 -8 6 0 12 4 15 8 3 5 -1 9 -9 9 -8 0 -15 -4
-15 -9z"/>
<path d="M3071 3124 c0 -11 3 -14 6 -6 3 7 2 16 -1 19 -3 4 -6 -2 -5 -13z"/>
<path d="M3107 3089 c7 -7 15 -10 18 -7 3 3 -2 9 -12 12 -14 6 -15 5 -6 -5z"/>
<path d="M3301 3016 c8 -8 198 -38 211 -34 7 3 -28 12 -79 21 -89 17 -141 21
-132 13z"/>
<path d="M5376 2554 c-9 -25 -7 -34 8 -34 19 0 28 14 20 34 -8 20 -20 20 -28
0z"/>
<path d="M5100 2556 c0 -8 4 -17 9 -20 11 -7 33 18 24 27 -12 12 -33 7 -33 -7z"/>
<path d="M5496 2541 c-4 -5 -2 -12 3 -15 5 -4 12 -2 15 3 4 5 2 12 -3 15 -5 4
-12 2 -15 -3z"/>
<path d="M4955 2510 c-10 -16 15 -41 39 -38 32 5 28 42 -6 46 -14 2 -29 -2
-33 -8z"/>
<path d="M5605 2470 c-27 -29 -15 -32 18 -4 16 14 22 24 14 24 -8 0 -22 -9
-32 -20z"/>
<path d="M4895 2430 c3 -5 8 -10 11 -10 2 0 4 5 4 10 0 6 -5 10 -11 10 -5 0
-7 -4 -4 -10z"/>
<path d="M5740 2430 c0 -5 5 -10 10 -10 6 0 10 5 10 10 0 6 -4 10 -10 10 -5 0
-10 -4 -10 -10z"/>
<path d="M5850 2345 c0 -8 5 -15 10 -15 6 0 10 7 10 15 0 8 -4 15 -10 15 -5 0
-10 -7 -10 -15z"/>
<path d="M4669 2308 c11 -15 11 -18 -2 -18 -8 0 -17 5 -19 12 -3 7 -12 9 -22
5 -16 -6 -16 -8 1 -32 22 -29 34 -31 57 -7 15 18 15 20 -6 38 -18 15 -20 16
-9 2z"/>
<path d="M5217 2100 c-38 -66 -65 -125 -62 -130 4 -6 1 -9 -7 -8 -7 2 -12 -5
-12 -14 1 -10 -2 -16 -6 -13 -4 2 -38 -45 -75 -106 -62 -102 -66 -113 -56
-137 10 -21 14 -23 23 -11 8 11 9 11 4 -3 -6 -21 3 -50 13 -43 4 2 8 -2 8 -9
0 -7 16 -41 37 -74 l37 -62 162 0 162 0 47 78 c26 42 54 93 64 114 17 36 17
36 -16 95 -18 32 -44 78 -58 103 -68 125 -172 307 -184 323 -12 16 -20 6 -81
-103z m115 -173 c26 -56 59 -133 73 -170 l25 -68 -72 3 c-52 2 -72 7 -70 16 1
6 -8 13 -20 14 -93 6 -95 6 -93 -11 3 -38 13 -41 145 -41 116 0 130 -2 139
-19 6 -10 7 -21 4 -25 -3 -3 -86 -6 -183 -6 -108 0 -180 -4 -186 -10 -7 -7
-11 -6 -11 5 0 8 3 13 6 10 9 -10 41 84 35 102 -4 13 -3 14 4 5 6 -9 29 32 77
142 37 86 71 156 74 156 3 -1 27 -47 53 -103z m-251 -124 c11 -15 11 -16 -1
-6 -11 10 -17 10 -29 0 -14 -11 -14 -10 -2 6 7 9 15 17 16 17 1 0 9 -8 16 -17z
m-60 -76 c-10 -9 -11 -8 -5 6 3 10 9 15 12 12 3 -3 0 -11 -7 -18z"/>
<path d="M5281 1925 c0 -5 11 -30 24 -55 13 -25 24 -40 24 -35 0 6 -11 30 -24
55 -13 25 -24 41 -24 35z"/>
<path d="M5330 1818 c0 -4 4 -18 10 -32 8 -21 6 -25 -13 -29 -18 -3 -17 -5 6
-6 25 -1 28 2 21 22 -7 25 -23 55 -24 45z"/>
<path d="M5380 2145 c0 -1 45 -85 100 -185 55 -101 100 -187 100 -192 0 -26
22 5 78 112 l64 121 -87 39 c-94 44 -255 110 -255 105z"/>
<path d="M5090 2080 c-14 -4 -62 -19 -107 -32 -74 -22 -80 -25 -61 -37 11 -7
17 -8 14 -3 -9 14 85 45 98 32 7 -7 3 -15 -10 -26 -19 -15 -19 -15 1 -6 14 8
22 6 30 -5 9 -12 11 -11 12 7 1 12 -2 18 -9 14 -7 -5 -8 -2 -3 7 21 36 27 40
44 27 9 -7 13 -8 9 -4 -4 5 0 15 10 22 19 15 9 16 -28 4z"/>
<path d="M5076 2051 c-4 -6 -3 -18 2 -27 8 -14 10 -14 15 -2 7 19 -8 44 -17
29z"/>
<path d="M5040 1976 c0 -9 5 -16 10 -16 6 0 10 4 10 9 0 6 -4 13 -10 16 -5 3
-10 -1 -10 -9z"/>
<path d="M4890 1910 c0 -6 4 -9 9 -6 5 4 12 1 14 -4 3 -6 4 -5 3 2 -3 15 -26
23 -26 8z"/>
<path d="M5020 1909 c0 -5 -5 -7 -12 -3 -7 4 -8 3 -4 -5 4 -6 4 -18 -1 -24 -4
-7 0 -4 10 6 16 18 23 37 12 37 -3 0 -5 -5 -5 -11z"/>
<path d="M4942 1815 c6 -14 15 -25 19 -25 10 0 32 40 26 47 -3 2 -8 -5 -12
-16 -3 -12 -11 -19 -16 -15 -5 3 -7 9 -4 14 3 4 -2 10 -10 13 -12 5 -12 2 -3
-18z"/>
<path d="M5544 1582 l-51 -87 105 -3 c57 -1 106 -1 109 1 4 5 -100 177 -107
177 -3 0 -28 -40 -56 -88z"/>
<path d="M4949 1638 c-1 -7 -1 -16 0 -20 0 -5 -4 -8 -10 -8 -5 0 -7 -4 -4 -10
3 -5 2 -10 -3 -10 -5 0 -23 -22 -40 -50 l-31 -50 106 0 c92 0 104 2 93 15 -7
8 -17 12 -23 8 -5 -3 -7 -1 -3 5 9 14 -54 113 -67 105 -6 -4 -8 0 -4 10 3 10
2 17 -3 17 -6 0 -11 -6 -11 -12z m21 -38 c-8 -5 -17 -7 -19 -4 -3 3 1 9 9 14
8 5 17 7 19 4 3 -3 -1 -9 -9 -14z m-24 -35 c-3 -8 0 -15 6 -15 7 0 7 -4 -1
-14 -6 -7 -24 -13 -39 -13 -15 0 -21 2 -14 4 6 3 12 11 12 18 0 8 8 19 18 24
23 14 25 13 18 -4z m79 -34 c-10 -10 -44 -11 -50 -1 -3 5 0 7 8 4 8 -3 18 0
22 6 3 6 3 10 -2 9 -17 -3 -24 1 -18 12 5 7 14 4 26 -7 11 -9 17 -20 14 -23z"/>
<path d="M4920 1540 c0 -5 5 -10 11 -10 5 0 7 5 4 10 -3 6 -8 10 -11 10 -2 0
-4 -4 -4 -10z"/>
<path d="M5146 1435 c4 -11 36 -75 71 -143 l65 -124 21 34 c29 48 118 237 115
245 -2 4 -65 7 -140 7 -133 1 -138 0 -132 -19z"/>
<path d="M4665 1249 c-35 -28 -18 -50 19 -25 15 9 26 21 26 26 0 19 -19 19
-45 -1z"/>
<path d="M5855 1249 c-11 -17 1 -21 15 -4 8 9 8 15 2 15 -6 0 -14 -5 -17 -11z"/>
<path d="M5060 985 c-16 -19 -4 -35 25 -35 13 0 27 5 30 10 8 13 -13 40 -30
40 -7 0 -18 -7 -25 -15z"/>
<path d="M4720 9410 c-20 -6 -21 -8 -5 -8 11 0 34 4 50 8 27 7 27 8 5 8 -14 0
-36 -4 -50 -8z"/>
<path d="M4658 9393 c7 -3 16 -2 19 1 4 3 -2 6 -13 5 -11 0 -14 -3 -6 -6z"/>
<path d="M5938 9383 c7 -3 16 -2 19 1 4 3 -2 6 -13 5 -11 0 -14 -3 -6 -6z"/>
<path d="M4558 9373 c7 -3 16 -2 19 1 4 3 -2 6 -13 5 -11 0 -14 -3 -6 -6z"/>
<path d="M4480 9360 c-13 -9 -13 -10 0 -9 8 1 26 5 40 9 l25 8 -25 1 c-14 0
-32 -4 -40 -9z"/>
<path d="M6028 9363 c7 -3 16 -2 19 1 4 3 -2 6 -13 5 -11 0 -14 -3 -6 -6z"/>
<path d="M4410 9340 c-13 -9 -13 -10 0 -9 8 0 24 4 35 9 l20 9 -20 0 c-11 0
-27 -4 -35 -9z"/>
<path d="M6101 9346 c2 -2 18 -6 34 -10 22 -5 26 -4 15 4 -14 9 -59 15 -49 6z"/>
<path d="M4340 9320 c-13 -9 -13 -10 0 -9 8 0 24 4 35 9 l20 9 -20 0 c-11 0
-27 -4 -35 -9z"/>
<path d="M6178 9323 c7 -3 16 -2 19 1 4 3 -2 6 -13 5 -11 0 -14 -3 -6 -6z"/>
<path d="M6300 9285 c36 -14 69 -23 75 -22 10 4 -112 47 -129 46 -6 0 18 -11
54 -24z"/>
<path d="M3780 9294 c0 -6 15 -23 33 -40 l32 -29 -30 35 c-16 19 -31 37 -32
39 -2 2 -3 0 -3 -5z"/>
<path d="M3736 9274 c-9 -24 -7 -28 9 -14 17 14 20 30 6 30 -5 0 -12 -7 -15
-16z"/>
<path d="M6425 9241 c22 -11 47 -19 55 -19 17 0 -32 22 -70 32 -14 3 -7 -3 15
-13z"/>
<path d="M3419 9193 c-13 -16 -12 -17 4 -4 16 13 21 21 13 21 -2 0 -10 -8 -17
-17z"/>
<path d="M3483 9135 c0 -22 2 -30 4 -17 2 12 2 30 0 40 -3 9 -5 -1 -4 -23z"/>
<path d="M3710 9155 c-7 -9 -10 -18 -7 -22 4 -3 9 2 13 11 6 15 7 15 21 -1 13
-16 13 -16 3 5 -13 26 -14 26 -30 7z"/>
<path d="M3765 9161 c-18 -7 -17 -8 7 -13 19 -4 25 -1 21 9 -3 7 -6 13 -7 12
0 0 -10 -4 -21 -8z"/>
<path d="M6832 9115 c0 -16 2 -22 5 -12 2 9 2 23 0 30 -3 6 -5 -1 -5 -18z"/>
<path d="M7570 9119 c0 -13 29 -69 35 -69 3 0 5 17 5 38 0 31 -4 38 -20 39
-11 1 -20 -3 -20 -8z"/>
<path d="M7379 9094 c-7 -8 -7 -14 1 -19 6 -4 9 -1 8 6 -2 7 2 13 9 14 17 0
25 12 8 12 -8 0 -20 -6 -26 -13z"/>
<path d="M3431 9076 c-9 -11 -9 -16 -1 -21 7 -4 9 -16 7 -27 -3 -11 -1 -18 6
-15 18 6 19 24 3 39 -11 12 -12 18 -3 27 6 6 8 11 5 11 -3 0 -11 -6 -17 -14z"/>
<path d="M7556 9074 c-8 -20 -8 -24 2 -24 4 0 8 9 9 20 2 24 -3 26 -11 4z"/>
<path d="M3664 9069 c-3 -6 -2 -15 3 -20 5 -5 9 -1 9 11 0 23 -2 24 -12 9z"/>
<path d="M3760 9069 c0 -5 5 -7 10 -4 6 3 10 8 10 11 0 2 -4 4 -10 4 -5 0 -10
-5 -10 -11z"/>
<path d="M7445 9070 c-3 -5 -1 -10 4 -10 6 0 11 5 11 10 0 6 -2 10 -4 10 -3 0
-8 -4 -11 -10z"/>
<path d="M7400 9066 c0 -2 8 -10 18 -17 15 -13 16 -12 3 4 -13 16 -21 21 -21
13z"/>
<path d="M6833 9015 c0 -22 2 -30 4 -17 2 12 2 30 0 40 -3 9 -5 -1 -4 -23z"/>
<path d="M7291 8980 c-28 -38 -42 -64 -31 -58 11 7 20 19 20 26 0 7 5 10 10 7
6 -4 10 -3 8 2 -4 15 44 83 55 76 6 -3 7 -1 3 5 -4 7 -9 12 -10 12 -2 0 -27
-31 -55 -70z"/>
<path d="M3620 9029 c0 -5 5 -7 10 -4 6 3 10 8 10 11 0 2 -4 4 -10 4 -5 0 -10
-5 -10 -11z"/>
<path d="M7538 9015 c2 -14 7 -24 10 -21 2 3 14 0 26 -6 15 -8 13 -3 -9 20
-17 18 -30 32 -31 32 -1 0 1 -11 4 -25z"/>
<path d="M7567 9024 c3 -7 9 -14 14 -14 14 0 10 17 -5 23 -10 4 -13 1 -9 -9z"/>
<path d="M7405 9020 c-8 -13 4 -50 16 -50 5 0 9 5 9 10 0 6 -5 10 -11 10 -6 0
-9 9 -6 20 6 22 2 26 -8 10z"/>
<path d="M7626 9015 c-9 -26 -7 -32 5 -12 6 10 9 21 6 23 -2 3 -7 -2 -11 -11z"/>
<path d="M3234 8988 l-19 -23 23 19 c21 18 27 26 19 26 -2 0 -12 -10 -23 -22z"/>
<path d="M3346 8979 c-8 -12 -12 -28 -9 -35 6 -17 15 -18 11 -1 -1 6 3 22 10
35 16 28 8 29 -12 1z"/>
<path d="M3395 8991 c-3 -5 -1 -12 5 -16 5 -3 10 1 10 9 0 18 -6 21 -15 7z"/>
<path d="M3490 8949 c0 -16 -4 -29 -10 -29 -5 0 -10 -7 -10 -16 0 -11 11 -3
30 21 35 45 36 50 10 52 -16 1 -20 -4 -20 -28z"/>
<path d="M3581 8954 c0 -11 3 -14 6 -6 3 7 2 16 -1 19 -3 4 -6 -2 -5 -13z"/>
<path d="M7617 8964 c-11 -11 -8 -26 3 -19 6 3 10 1 10 -6 0 -7 3 -10 6 -6 3
3 2 13 -3 22 -5 8 -12 12 -16 9z"/>
<path d="M7651 8943 c-1 -6 -4 -20 -7 -30 -5 -17 -5 -17 6 0 6 10 9 23 6 30
-3 9 -5 9 -5 0z"/>
<path d="M7316 8924 c-5 -14 -4 -15 9 -4 17 14 19 20 6 20 -5 0 -12 -7 -15
-16z"/>
<path d="M7140 8807 c-52 -51 -86 -84 -75 -75 11 9 32 15 48 14 15 -2 30 1 33
6 3 4 2 8 -3 7 -27 -5 -35 1 -23 16 7 9 19 14 26 11 8 -3 11 0 8 8 -3 7 16 32
41 55 40 37 48 41 63 29 15 -12 16 -11 3 5 -7 9 -16 17 -20 17 -3 -1 -49 -42
-101 -93z"/>
<path d="M6812 8820 c0 -14 2 -19 5 -12 2 6 2 18 0 25 -3 6 -5 1 -5 -13z"/>
<path d="M6972 8661 c-25 -21 -29 -29 -16 -28 25 3 25 -24 0 -46 -19 -16 -19
-17 -2 -10 19 6 56 38 56 47 0 3 -7 6 -15 8 -13 2 -12 5 4 15 17 11 19 10 15
-2 -4 -8 -3 -15 0 -15 11 0 46 34 46 45 0 5 -4 4 -9 -4 -5 -8 -16 -11 -30 -6
-12 3 -19 11 -16 16 10 14 2 10 -33 -20z m28 0 c0 -5 -7 -12 -16 -15 -14 -5
-15 -4 -4 9 14 17 20 19 20 6z"/>
<path d="M2904 8548 l-19 -23 23 19 c21 18 27 26 19 26 -2 0 -12 -10 -23 -22z"/>
<path d="M2624 8258 l-19 -23 23 19 c21 18 27 26 19 26 -2 0 -12 -10 -23 -22z"/>
<path d="M3965 7850 c4 -6 11 -8 16 -5 14 9 11 15 -7 15 -8 0 -12 -5 -9 -10z"/>
<path d="M4103 7813 c11 -7 9 -33 -3 -33 -5 0 -10 5 -10 12 0 6 -3 8 -7 4 -5
-4 -1 -13 8 -19 9 -7 19 -19 22 -27 4 -9 5 -5 3 8 -2 12 2 29 11 37 8 8 10 15
5 15 -6 0 -16 2 -24 3 -7 2 -10 2 -5 0z"/>
<path d="M4140 7780 c-16 -11 -15 -11 18 -15 18 -2 20 0 11 11 -13 16 -10 16
-29 4z"/>
<path d="M4210 7776 c0 -2 7 -7 16 -10 8 -3 12 -2 9 4 -6 10 -25 14 -25 6z"/>
<path d="M4330 7721 c0 -5 5 -13 10 -16 6 -3 10 -2 10 4 0 5 -4 13 -10 16 -5
3 -10 2 -10 -4z"/>
<path d="M4110 7671 c0 -13 42 -42 49 -35 3 3 -1 9 -9 14 -13 8 -13 10 -1 10
20 0 5 13 -19 17 -11 2 -20 -1 -20 -6z"/>
<path d="M8410 3211 l-25 -7 25 -7 c16 -4 30 -1 40 8 12 13 12 15 0 14 -8 -1
-26 -4 -40 -8z"/>
<path d="M2118 3203 c7 -3 16 -2 19 1 4 3 -2 6 -13 5 -11 0 -14 -3 -6 -6z"/>
<path d="M7628 2423 c6 -2 18 -2 25 0 6 3 1 5 -13 5 -14 0 -19 -2 -12 -5z"/>
<path d="M3635 1370 c-24 -46 -16 -91 16 -102 15 -5 30 -16 33 -24 10 -27 23
-14 29 31 4 25 18 63 32 85 l25 40 -60 0 c-56 0 -60 -2 -75 -30z"/>
<path d="M6807 1365 c15 -19 28 -33 29 -32 1 1 -1 17 -3 35 -4 26 -10 32 -30
32 l-24 0 28 -35z"/>
<path d="M3382 1358 c-19 -19 -15 -66 7 -78 29 -15 39 -13 57 15 24 37 12 75
-24 75 -15 0 -33 -5 -40 -12z"/>
<path d="M7140 1365 c0 -4 8 -20 17 -38 l18 -32 3 29 c2 16 -2 32 -10 37 -15
10 -28 11 -28 4z"/>
<path d="M7115 1290 c3 -5 13 -10 21 -10 8 0 12 5 9 10 -3 6 -13 10 -21 10 -8
0 -12 -4 -9 -10z"/>
<path d="M4055 1030 c-8 -13 5 -13 25 0 13 8 13 10 -2 10 -9 0 -20 -4 -23 -10z"/>
</g>
</svg>
